<svg xmlns="http://www.w3.org/2000/svg" xmlns:xlink="http://www.w3.org/1999/xlink" width="1300" zoomAndPan="magnify" viewBox="0 0 974.88 187.499995" height="250" preserveAspectRatio="xMidYMid meet" version="1.0"><defs><g/><clipPath id="bf9c49bf96"><path d="M 13.234375 5.140625 L 271.296875 5.140625 L 271.296875 172.695312 L 13.234375 172.695312 Z M 13.234375 5.140625 " clip-rule="nonzero"/></clipPath><clipPath id="7e5112d760"><path d="M 247 0 L 342 0 L 342 187 L 247 187 Z M 247 0 " clip-rule="nonzero"/></clipPath></defs><g clip-path="url(#bf9c49bf96)"><path fill="#0097b2" d="M 13.359375 76.355469 L 54.835938 117.832031 L 54.835938 172.644531 L 13.359375 172.644531 Z M 271.351562 54.4375 C 271.351562 50.390625 270.859375 46.359375 269.886719 42.457031 C 264.398438 20.484375 244.738281 5.140625 222.0625 5.140625 L 108.199219 5.140625 L 108.199219 74.398438 L 149.675781 115.875 L 149.675781 42.789062 L 212.722656 42.789062 C 219.761719 42.789062 225.488281 48.515625 225.488281 55.550781 C 225.488281 62.589844 219.761719 68.316406 212.722656 68.316406 L 186.378906 68.316406 L 186.378906 111.070312 L 212.714844 111.070312 C 219.753906 111.070312 225.476562 116.792969 225.476562 123.832031 C 225.476562 130.871094 219.753906 136.59375 212.714844 136.59375 L 150.285156 136.59375 L 74.355469 59.617188 L 20.859375 6.125 L 19.878906 5.140625 L 13.359375 5.140625 L 13.359375 57.402344 L 54.835938 98.878906 L 54.835938 98.847656 L 81.320312 125.363281 L 126.972656 171.015625 L 128.59375 172.644531 L 222.0625 172.644531 C 223.402344 172.644531 224.726562 172.589844 226.003906 172.488281 C 247.121094 170.8125 264.753906 155.878906 269.886719 135.324219 C 270.859375 131.421875 271.351562 127.394531 271.351562 123.347656 C 271.351562 110.46875 266.257812 98.058594 257.300781 88.890625 C 266.265625 79.71875 271.351562 67.308594 271.351562 54.4375 Z M 271.351562 54.4375 " fill-opacity="1" fill-rule="nonzero"/></g><g fill="#ffffff" fill-opacity="1"><g transform="translate(320.49587, 64.200384)"><g><path d="M 60.921875 -9.75 C 58.359375 -2.664062 53.828125 0.875 47.328125 0.875 C 44.140625 0.875 41.617188 0.0859375 39.765625 -1.484375 C 37.921875 -3.066406 36.59375 -5.625 35.78125 -9.15625 C 35.738281 -9.238281 35.664062 -9.539062 35.5625 -10.0625 C 35.46875 -10.59375 35.34375 -11.265625 35.1875 -12.078125 C 34.53125 -9.742188 33.710938 -7.59375 32.734375 -5.625 C 31.765625 -3.664062 30.441406 -2.09375 28.765625 -0.90625 C 27.097656 0.28125 24.84375 0.875 22 0.875 C 18.8125 0.875 16.289062 0.0859375 14.4375 -1.484375 C 12.59375 -3.066406 11.265625 -5.625 10.453125 -9.15625 C 10.453125 -9.28125 10.363281 -9.75 10.1875 -10.5625 C 10.007812 -11.375 9.789062 -12.410156 9.53125 -13.671875 C 9.28125 -14.941406 9.007812 -16.285156 8.71875 -17.703125 C 8.425781 -19.128906 8.144531 -20.484375 7.875 -21.765625 C 7.601562 -23.046875 7.378906 -24.144531 7.203125 -25.0625 C 7.023438 -25.976562 6.921875 -26.550781 6.890625 -26.78125 C 6.691406 -27.875 6.472656 -29.0625 6.234375 -30.34375 C 6.003906 -31.625 5.6875 -32.835938 5.28125 -33.984375 C 4.875 -35.140625 4.335938 -36.085938 3.671875 -36.828125 C 3.015625 -37.566406 2.179688 -37.9375 1.171875 -37.9375 C 1.285156 -38.675781 1.78125 -39.296875 2.65625 -39.796875 C 3.53125 -40.304688 4.585938 -40.707031 5.828125 -41 C 7.078125 -41.289062 8.285156 -41.4375 9.453125 -41.4375 C 12.296875 -41.4375 14.695312 -40.773438 16.65625 -39.453125 C 18.625 -38.128906 19.878906 -35.910156 20.421875 -32.796875 C 20.535156 -32.140625 20.75 -31.007812 21.0625 -29.40625 C 21.375 -27.8125 21.734375 -25.984375 22.140625 -23.921875 C 22.554688 -21.859375 22.96875 -19.785156 23.375 -17.703125 C 23.78125 -15.628906 24.140625 -13.742188 24.453125 -12.046875 C 24.765625 -10.359375 25 -9.101562 25.15625 -8.28125 C 25.382812 -7.082031 25.65625 -6.195312 25.96875 -5.625 C 26.28125 -5.0625 26.613281 -4.765625 26.96875 -4.734375 C 27.550781 -4.734375 28.132812 -5.207031 28.71875 -6.15625 C 29.300781 -7.113281 29.863281 -8.398438 30.40625 -10.015625 C 30.945312 -11.628906 31.46875 -13.414062 31.96875 -15.375 C 32.476562 -17.34375 32.929688 -19.316406 33.328125 -21.296875 C 33.054688 -22.660156 32.820312 -23.859375 32.625 -24.890625 C 32.425781 -25.921875 32.289062 -26.550781 32.21875 -26.78125 C 32.019531 -27.875 31.800781 -29.0625 31.5625 -30.34375 C 31.332031 -31.625 31.015625 -32.835938 30.609375 -33.984375 C 30.203125 -35.140625 29.664062 -36.085938 29 -36.828125 C 28.34375 -37.566406 27.507812 -37.9375 26.5 -37.9375 C 26.613281 -38.675781 27.109375 -39.296875 27.984375 -39.796875 C 28.859375 -40.304688 29.90625 -40.707031 31.125 -41 C 32.351562 -41.289062 33.570312 -41.4375 34.78125 -41.4375 C 37.625 -41.4375 40.023438 -40.773438 41.984375 -39.453125 C 43.953125 -38.128906 45.207031 -35.910156 45.75 -32.796875 C 45.863281 -32.140625 46.078125 -31.007812 46.390625 -29.40625 C 46.703125 -27.8125 47.0625 -25.984375 47.46875 -23.921875 C 47.882812 -21.859375 48.296875 -19.785156 48.703125 -17.703125 C 49.109375 -15.628906 49.46875 -13.742188 49.78125 -12.046875 C 50.09375 -10.359375 50.328125 -9.101562 50.484375 -8.28125 C 50.953125 -5.789062 51.554688 -4.609375 52.296875 -4.734375 C 53.265625 -4.921875 54.15625 -5.664062 54.96875 -6.96875 C 55.789062 -8.269531 56.503906 -9.910156 57.109375 -11.890625 C 57.710938 -13.878906 58.1875 -15.992188 58.53125 -18.234375 C 58.882812 -20.472656 59.085938 -22.632812 59.140625 -24.71875 C 59.203125 -26.800781 59.078125 -28.585938 58.765625 -30.078125 C 58.453125 -31.578125 57.945312 -32.539062 57.25 -32.96875 C 56.28125 -33.238281 55.335938 -33.910156 54.421875 -34.984375 C 53.503906 -36.054688 52.945312 -37.253906 52.75 -38.578125 C 52.675781 -39.472656 52.726562 -40.226562 52.90625 -40.84375 C 53.082031 -41.46875 53.320312 -41.898438 53.625 -42.140625 C 53.9375 -41.515625 54.644531 -41.070312 55.75 -40.8125 C 56.863281 -40.5625 58.082031 -40.4375 59.40625 -40.4375 C 60.539062 -40.4375 61.660156 -40.492188 62.765625 -40.609375 C 63.867188 -40.734375 64.8125 -40.851562 65.59375 -40.96875 C 66.375 -41.082031 66.84375 -41.140625 67 -41.140625 C 66.21875 -40.328125 65.691406 -39.238281 65.421875 -37.875 C 65.148438 -36.507812 64.972656 -34.898438 64.890625 -33.046875 C 64.816406 -31.203125 64.703125 -29.101562 64.546875 -26.75 C 64.390625 -24.40625 64.046875 -21.8125 63.515625 -18.96875 C 62.992188 -16.125 62.128906 -13.050781 60.921875 -9.75 Z M 60.921875 -9.75 "/></g></g></g><g fill="#ffffff" fill-opacity="1"><g transform="translate(388.834347, 64.200384)"><g><path d="M 22.46875 -3.625 C 21.84375 -2.300781 20.894531 -1.25 19.625 -0.46875 C 18.363281 0.3125 16.898438 0.722656 15.234375 0.765625 C 12.585938 0.796875 10.222656 0.40625 8.140625 -0.40625 C 6.054688 -1.226562 4.421875 -2.453125 3.234375 -4.078125 C 2.046875 -5.710938 1.453125 -7.71875 1.453125 -10.09375 C 1.453125 -11.6875 1.84375 -13 2.625 -14.03125 C 3.40625 -15.0625 4.414062 -15.828125 5.65625 -16.328125 C 6.90625 -16.835938 8.25 -17.09375 9.6875 -17.09375 C 11.050781 -17.09375 12.351562 -16.914062 13.59375 -16.5625 C 14.84375 -16.21875 16.128906 -16.046875 17.453125 -16.046875 C 18.304688 -16.046875 19.039062 -16.160156 19.65625 -16.390625 C 20.28125 -16.628906 20.757812 -17.15625 21.09375 -17.96875 C 21.425781 -18.789062 21.515625 -20.078125 21.359375 -21.828125 C 21.285156 -22.835938 21.0625 -23.75 20.6875 -24.5625 C 20.320312 -25.382812 19.628906 -25.796875 18.609375 -25.796875 C 17.953125 -25.796875 17.492188 -25.585938 17.234375 -25.171875 C 16.984375 -24.765625 16.789062 -24.257812 16.65625 -23.65625 C 16.519531 -23.0625 16.328125 -22.453125 16.078125 -21.828125 C 15.828125 -21.203125 15.410156 -20.6875 14.828125 -20.28125 C 14.242188 -19.875 13.347656 -19.671875 12.140625 -19.671875 C 10.117188 -19.671875 8.40625 -20.265625 7 -21.453125 C 5.601562 -22.640625 4.90625 -24.300781 4.90625 -26.4375 C 4.90625 -27.0625 5.03125 -27.710938 5.28125 -28.390625 C 5.53125 -29.066406 5.945312 -29.601562 6.53125 -30 C 7.894531 -28.132812 9.742188 -27.203125 12.078125 -27.203125 C 13.484375 -27.203125 14.882812 -27.375 16.28125 -27.71875 C 17.6875 -28.070312 19.109375 -28.25 20.546875 -28.25 C 22.253906 -28.25 23.972656 -28.039062 25.703125 -27.625 C 27.429688 -27.21875 29.023438 -26.566406 30.484375 -25.671875 C 31.953125 -24.773438 33.128906 -23.617188 34.015625 -22.203125 C 34.910156 -20.785156 35.359375 -19.082031 35.359375 -17.09375 C 35.359375 -16.550781 35.335938 -15.707031 35.296875 -14.5625 C 35.265625 -13.414062 35.273438 -12.171875 35.328125 -10.828125 C 35.390625 -9.484375 35.554688 -8.195312 35.828125 -6.96875 C 36.097656 -5.75 36.515625 -4.726562 37.078125 -3.90625 C 37.648438 -3.09375 38.421875 -2.6875 39.390625 -2.6875 C 39.078125 -1.789062 38.53125 -1.085938 37.75 -0.578125 C 36.976562 -0.078125 36.125 0.257812 35.1875 0.4375 C 34.257812 0.613281 33.363281 0.703125 32.5 0.703125 C 30.132812 0.703125 28.125 0.398438 26.46875 -0.203125 C 24.8125 -0.804688 23.476562 -1.945312 22.46875 -3.625 Z M 14.59375 -10.453125 C 14.59375 -9.160156 15.007812 -7.941406 15.84375 -6.796875 C 16.675781 -5.648438 17.796875 -5.078125 19.203125 -5.078125 C 19.941406 -5.078125 20.445312 -5.289062 20.71875 -5.71875 C 20.988281 -6.144531 21.148438 -6.648438 21.203125 -7.234375 C 21.265625 -7.816406 21.316406 -8.304688 21.359375 -8.703125 C 21.359375 -9.628906 21.359375 -10.550781 21.359375 -11.46875 C 21.359375 -12.382812 21.378906 -13.304688 21.421875 -14.234375 C 20.910156 -13.804688 20.273438 -13.59375 19.515625 -13.59375 C 18.765625 -13.59375 18.007812 -13.582031 17.25 -13.5625 C 16.488281 -13.550781 15.851562 -13.335938 15.34375 -12.921875 C 14.84375 -12.515625 14.59375 -11.691406 14.59375 -10.453125 Z M 14.59375 -10.453125 "/></g></g></g><g fill="#ffffff" fill-opacity="1"><g transform="translate(430.503002, 64.200384)"><g><path d="M 22.765625 -2.6875 C 22.453125 -1.75 21.828125 -1.023438 20.890625 -0.515625 C 19.953125 -0.015625 18.945312 0.335938 17.875 0.546875 C 16.8125 0.765625 15.851562 0.875 15 0.875 C 13.050781 0.875 11.296875 0.609375 9.734375 0.078125 C 8.179688 -0.441406 6.957031 -1.332031 6.0625 -2.59375 C 5.175781 -3.863281 4.734375 -5.566406 4.734375 -7.703125 C 4.734375 -9.878906 4.734375 -12.078125 4.734375 -14.296875 C 4.734375 -16.515625 4.75 -18.710938 4.78125 -20.890625 C 3.882812 -21.554688 3.210938 -22.363281 2.765625 -23.3125 C 2.316406 -24.269531 2.09375 -25.289062 2.09375 -26.375 C 2.09375 -27.039062 2.21875 -27.710938 2.46875 -28.390625 C 2.726562 -29.066406 3.148438 -29.601562 3.734375 -30 C 4.515625 -28.90625 5.5 -28.171875 6.6875 -27.796875 C 7.875 -27.429688 9.085938 -27.25 10.328125 -27.25 C 11.335938 -27.25 12.335938 -27.316406 13.328125 -27.453125 C 14.328125 -27.585938 15.3125 -27.71875 16.28125 -27.84375 C 16.320312 -27.6875 16.476562 -27.140625 16.75 -26.203125 C 17.019531 -25.265625 17.320312 -24.238281 17.65625 -23.125 C 17.988281 -22.019531 18.25 -21.117188 18.4375 -20.421875 C 18.988281 -22.140625 19.75 -23.742188 20.71875 -25.234375 C 21.6875 -26.734375 22.890625 -27.941406 24.328125 -28.859375 C 25.773438 -29.773438 27.453125 -30.234375 29.359375 -30.234375 C 31.960938 -30.234375 34.019531 -29.375 35.53125 -27.65625 C 37.050781 -25.945312 37.8125 -23.828125 37.8125 -21.296875 C 37.8125 -19.503906 37.453125 -17.859375 36.734375 -16.359375 C 36.015625 -14.867188 34.992188 -13.675781 33.671875 -12.78125 C 32.347656 -11.882812 30.734375 -11.4375 28.828125 -11.4375 C 27.742188 -11.4375 26.613281 -11.660156 25.4375 -12.109375 C 24.269531 -12.554688 23.4375 -13.328125 22.9375 -14.421875 C 23.71875 -14.296875 24.378906 -14.503906 24.921875 -15.046875 C 25.460938 -15.597656 25.890625 -16.3125 26.203125 -17.1875 C 26.515625 -18.0625 26.738281 -18.925781 26.875 -19.78125 C 27.007812 -20.632812 27.078125 -21.335938 27.078125 -21.890625 C 27.078125 -22.273438 27.035156 -22.785156 26.953125 -23.421875 C 26.878906 -24.066406 26.71875 -24.648438 26.46875 -25.171875 C 26.21875 -25.703125 25.816406 -25.96875 25.265625 -25.96875 C 24.609375 -25.96875 23.96875 -25.578125 23.34375 -24.796875 C 22.71875 -24.023438 22.125 -23.023438 21.5625 -21.796875 C 21 -20.566406 20.503906 -19.28125 20.078125 -17.9375 C 19.648438 -16.601562 19.316406 -15.359375 19.078125 -14.203125 C 18.847656 -13.054688 18.734375 -12.175781 18.734375 -11.5625 L 18.734375 -10.96875 C 18.734375 -10.96875 18.722656 -10.976562 18.703125 -11 C 18.679688 -11.019531 18.671875 -11.03125 18.671875 -11.03125 C 18.671875 -9.820312 18.738281 -8.566406 18.875 -7.265625 C 19.007812 -5.960938 19.359375 -4.863281 19.921875 -3.96875 C 20.492188 -3.070312 21.363281 -2.625 22.53125 -2.625 Z M 22.765625 -2.6875 "/></g></g></g><g fill="#ffffff" fill-opacity="1"><g transform="translate(472.988818, 64.200384)"><g><path d="M 44.59375 -2.6875 C 44.195312 -1.59375 43.289062 -0.734375 41.875 -0.109375 C 40.457031 0.503906 38.773438 0.832031 36.828125 0.875 C 33.753906 0.875 31.265625 0.210938 29.359375 -1.109375 C 27.453125 -2.429688 26.5 -4.628906 26.5 -7.703125 L 26.546875 -7.875 C 25.617188 -5.425781 24.207031 -3.375 22.3125 -1.71875 C 20.425781 -0.0625 17.988281 0.742188 15 0.703125 C 12 0.617188 9.570312 -0.234375 7.71875 -1.859375 C 5.875 -3.492188 4.9375 -5.925781 4.90625 -9.15625 C 4.90625 -9.351562 4.910156 -9.734375 4.921875 -10.296875 C 4.941406 -10.859375 4.953125 -11.46875 4.953125 -12.125 C 4.953125 -12.789062 4.953125 -13.335938 4.953125 -13.765625 C 4.953125 -14.859375 4.953125 -16.046875 4.953125 -17.328125 C 4.953125 -18.617188 4.863281 -19.835938 4.6875 -20.984375 C 4.519531 -22.128906 4.160156 -23.070312 3.609375 -23.8125 C 3.066406 -24.550781 2.253906 -24.921875 1.171875 -24.921875 C 1.128906 -24.921875 1.085938 -24.910156 1.046875 -24.890625 C 1.003906 -24.867188 0.96875 -24.859375 0.9375 -24.859375 C 1.320312 -25.953125 2.222656 -26.804688 3.640625 -27.421875 C 5.066406 -28.046875 6.753906 -28.378906 8.703125 -28.421875 C 11.804688 -28.421875 14.289062 -27.757812 16.15625 -26.4375 C 18.03125 -25.113281 18.96875 -22.894531 18.96875 -19.78125 C 18.96875 -18.113281 18.945312 -16.296875 18.90625 -14.328125 C 18.863281 -12.359375 18.863281 -10.34375 18.90625 -8.28125 C 18.90625 -7.195312 18.90625 -6.253906 18.90625 -5.453125 C 18.90625 -4.660156 19.019531 -4.097656 19.25 -3.765625 C 19.488281 -3.429688 19.9375 -3.398438 20.59375 -3.671875 C 21.101562 -3.867188 21.707031 -4.472656 22.40625 -5.484375 C 23.101562 -6.492188 23.78125 -7.738281 24.4375 -9.21875 C 25.101562 -10.695312 25.640625 -12.265625 26.046875 -13.921875 C 26.460938 -15.578125 26.628906 -17.125 26.546875 -18.5625 L 26.546875 -20.65625 C 25.773438 -21.238281 25.144531 -21.988281 24.65625 -22.90625 C 24.164062 -23.820312 23.921875 -24.898438 23.921875 -26.140625 C 23.921875 -27.035156 24.097656 -27.796875 24.453125 -28.421875 C 24.804688 -29.046875 25.175781 -29.492188 25.5625 -29.765625 C 26.375 -28.671875 27.488281 -27.929688 28.90625 -27.546875 C 30.332031 -27.160156 31.820312 -26.96875 33.375 -26.96875 C 34.695312 -26.96875 35.976562 -27.039062 37.21875 -27.1875 C 38.46875 -27.34375 39.582031 -27.484375 40.5625 -27.609375 L 40.5625 -13.953125 C 40.5625 -12.859375 40.550781 -11.660156 40.53125 -10.359375 C 40.507812 -9.054688 40.59375 -7.8125 40.78125 -6.625 C 40.976562 -5.4375 41.347656 -4.472656 41.890625 -3.734375 C 42.441406 -2.992188 43.265625 -2.625 44.359375 -2.625 C 44.429688 -2.625 44.507812 -2.644531 44.59375 -2.6875 Z M 44.59375 -2.6875 "/></g></g></g><g fill="#ffffff" fill-opacity="1"><g transform="translate(519.851272, 64.200384)"><g><path d="M 44.40625 -2.6875 C 44.019531 -1.59375 43.109375 -0.722656 41.671875 -0.078125 C 40.234375 0.554688 38.539062 0.875 36.59375 0.875 C 33.519531 0.914062 31.035156 0.265625 29.140625 -1.078125 C 27.253906 -2.421875 26.3125 -4.648438 26.3125 -7.765625 C 26.3125 -9.472656 26.332031 -11.300781 26.375 -13.25 C 26.414062 -15.195312 26.4375 -17.203125 26.4375 -19.265625 C 26.4375 -20.890625 26.394531 -22.171875 26.3125 -23.109375 C 26.238281 -24.046875 25.695312 -24.300781 24.6875 -23.875 C 24.21875 -23.675781 23.632812 -23.070312 22.9375 -22.0625 C 22.238281 -21.050781 21.554688 -19.804688 20.890625 -18.328125 C 20.234375 -16.847656 19.695312 -15.289062 19.28125 -13.65625 C 18.875 -12.019531 18.691406 -10.460938 18.734375 -8.984375 C 18.804688 -7.898438 18.945312 -6.867188 19.15625 -5.890625 C 19.375 -4.921875 19.742188 -4.132812 20.265625 -3.53125 C 20.796875 -2.925781 21.550781 -2.625 22.53125 -2.625 C 22.644531 -2.625 22.722656 -2.644531 22.765625 -2.6875 C 22.367188 -1.59375 21.460938 -0.734375 20.046875 -0.109375 C 18.628906 0.503906 16.945312 0.832031 15 0.875 C 11.925781 0.875 9.4375 0.210938 7.53125 -1.109375 C 5.625 -2.429688 4.691406 -4.628906 4.734375 -7.703125 L 4.78125 -20.890625 C 3.96875 -21.472656 3.316406 -22.226562 2.828125 -23.15625 C 2.335938 -24.09375 2.09375 -25.164062 2.09375 -26.375 C 2.09375 -27.269531 2.269531 -28.03125 2.625 -28.65625 C 2.976562 -29.28125 3.347656 -29.726562 3.734375 -30 C 4.515625 -28.90625 5.488281 -28.171875 6.65625 -27.796875 C 7.820312 -27.429688 9.066406 -27.25 10.390625 -27.25 C 11.398438 -27.25 12.410156 -27.316406 13.421875 -27.453125 C 14.429688 -27.585938 15.382812 -27.71875 16.28125 -27.84375 L 18.671875 -19.4375 C 19.566406 -21.96875 20.96875 -24.085938 22.875 -25.796875 C 24.78125 -27.503906 27.269531 -28.320312 30.34375 -28.25 C 33.34375 -28.164062 35.765625 -27.304688 37.609375 -25.671875 C 39.460938 -24.046875 40.390625 -21.617188 40.390625 -18.390625 C 40.390625 -18.191406 40.390625 -17.8125 40.390625 -17.25 C 40.390625 -16.6875 40.378906 -16.082031 40.359375 -15.4375 C 40.335938 -14.789062 40.328125 -14.234375 40.328125 -13.765625 C 40.328125 -12.679688 40.328125 -11.492188 40.328125 -10.203125 C 40.328125 -8.921875 40.414062 -7.707031 40.59375 -6.5625 C 40.769531 -5.414062 41.128906 -4.472656 41.671875 -3.734375 C 42.210938 -2.992188 43.03125 -2.625 44.125 -2.625 C 44.238281 -2.625 44.332031 -2.644531 44.40625 -2.6875 Z M 44.40625 -2.6875 "/></g></g></g><g fill="#ffffff" fill-opacity="1"><g transform="translate(568.406355, 64.200384)"><g><path d="M 36.765625 -2.75 C 36.765625 1.0625 35.976562 4.222656 34.40625 6.734375 C 32.832031 9.242188 30.648438 11.101562 27.859375 12.3125 C 25.078125 13.519531 21.859375 14.125 18.203125 14.125 C 17.390625 14.125 16.46875 14.035156 15.4375 13.859375 C 14.40625 13.679688 13.410156 13.378906 12.453125 12.953125 C 11.503906 12.523438 10.707031 11.929688 10.0625 11.171875 C 9.425781 10.410156 9.066406 9.429688 8.984375 8.234375 C 8.910156 6.710938 9.394531 5.328125 10.4375 4.078125 C 11.488281 2.835938 12.796875 1.75 14.359375 0.8125 C 11.710938 0.5 9.414062 -0.390625 7.46875 -1.859375 C 5.519531 -3.335938 4.03125 -5.222656 3 -7.515625 C 1.96875 -9.816406 1.453125 -12.3125 1.453125 -15 C 1.453125 -17.488281 1.9375 -19.734375 2.90625 -21.734375 C 3.882812 -23.742188 5.296875 -25.332031 7.140625 -26.5 C 8.992188 -27.664062 11.203125 -28.25 13.765625 -28.25 C 14.703125 -28.25 15.800781 -28.09375 17.0625 -27.78125 C 18.332031 -27.46875 19.507812 -27 20.59375 -26.375 C 21.6875 -25.75 22.425781 -24.972656 22.8125 -24.046875 L 24.859375 -27.84375 C 25.796875 -27.601562 26.738281 -27.40625 27.6875 -27.25 C 28.644531 -27.09375 29.609375 -27.015625 30.578125 -27.015625 C 31.941406 -27.015625 33.273438 -27.226562 34.578125 -27.65625 C 35.878906 -28.082031 36.941406 -28.863281 37.765625 -30 C 38.304688 -29.601562 38.710938 -29.066406 38.984375 -28.390625 C 39.253906 -27.710938 39.390625 -27.039062 39.390625 -26.375 C 39.390625 -25.289062 39.175781 -24.269531 38.75 -23.3125 C 38.320312 -22.363281 37.660156 -21.554688 36.765625 -20.890625 C 36.765625 -17.898438 36.765625 -14.882812 36.765625 -11.84375 C 36.765625 -8.8125 36.765625 -5.78125 36.765625 -2.75 Z M 15.171875 -14.53125 C 15.171875 -14.101562 15.207031 -13.421875 15.28125 -12.484375 C 15.363281 -11.554688 15.492188 -10.515625 15.671875 -9.359375 C 15.847656 -8.210938 16.085938 -7.113281 16.390625 -6.0625 C 16.703125 -5.019531 17.101562 -4.15625 17.59375 -3.46875 C 18.082031 -2.789062 18.65625 -2.453125 19.3125 -2.453125 C 20.019531 -2.453125 20.585938 -2.757812 21.015625 -3.375 C 21.441406 -4 21.78125 -4.796875 22.03125 -5.765625 C 22.28125 -6.742188 22.453125 -7.769531 22.546875 -8.84375 C 22.648438 -9.914062 22.710938 -10.90625 22.734375 -11.8125 C 22.753906 -12.726562 22.765625 -13.441406 22.765625 -13.953125 L 22.765625 -15.984375 C 22.765625 -16.609375 22.734375 -17.359375 22.671875 -18.234375 C 22.609375 -19.109375 22.453125 -19.960938 22.203125 -20.796875 C 21.953125 -21.640625 21.582031 -22.34375 21.09375 -22.90625 C 20.613281 -23.46875 19.925781 -23.75 19.03125 -23.75 C 18.164062 -23.75 17.472656 -23.390625 16.953125 -22.671875 C 16.429688 -21.953125 16.039062 -21.066406 15.78125 -20.015625 C 15.53125 -18.960938 15.363281 -17.929688 15.28125 -16.921875 C 15.207031 -15.910156 15.171875 -15.113281 15.171875 -14.53125 Z M 12.25 8 C 12.25 8.851562 12.484375 9.503906 12.953125 9.953125 C 13.421875 10.398438 13.957031 10.703125 14.5625 10.859375 C 15.164062 11.015625 15.660156 11.09375 16.046875 11.09375 C 17.878906 11.09375 19.425781 10.144531 20.6875 8.25 C 21.945312 6.363281 22.640625 3.5 22.765625 -0.34375 C 21.710938 0.0820312 20.582031 0.578125 19.375 1.140625 C 18.164062 1.703125 17.015625 2.332031 15.921875 3.03125 C 14.835938 3.726562 13.953125 4.492188 13.265625 5.328125 C 12.585938 6.171875 12.25 7.0625 12.25 8 Z M 12.25 8 "/></g></g></g><g fill="#ffffff" fill-opacity="1"><g transform="translate(612.467853, 64.200384)"><g/></g></g><g fill="#ffffff" fill-opacity="1"><g transform="translate(633.944502, 64.200384)"><g><path d="M 21.703125 -41.4375 C 22.867188 -37.78125 23.921875 -34.492188 24.859375 -31.578125 C 25.796875 -28.660156 26.679688 -25.960938 27.515625 -23.484375 C 28.347656 -21.015625 29.175781 -18.578125 30 -16.171875 L 37.46875 -41.84375 C 38.59375 -41.300781 39.875 -40.921875 41.3125 -40.703125 C 42.757812 -40.492188 44.222656 -40.390625 45.703125 -40.390625 C 47.367188 -40.390625 48.976562 -40.46875 50.53125 -40.625 C 52.09375 -40.78125 53.414062 -40.929688 54.5 -41.078125 L 53.8125 -39.859375 C 53.34375 -39.046875 52.960938 -38.09375 52.671875 -37 C 52.378906 -35.90625 52.253906 -34.875 52.296875 -33.90625 L 54.09375 -6.59375 C 54.175781 -5.625 54.363281 -4.601562 54.65625 -3.53125 C 54.945312 -2.457031 55.363281 -1.535156 55.90625 -0.765625 L 56.4375 0.109375 L 37.46875 0.109375 L 38.046875 -0.765625 C 38.597656 -1.535156 39.046875 -2.457031 39.390625 -3.53125 C 39.742188 -4.601562 39.878906 -5.625 39.796875 -6.59375 L 38.40625 -30.234375 L 31.390625 -6.1875 C 31.203125 -5.21875 30.582031 -4.289062 29.53125 -3.40625 C 28.476562 -2.53125 27.019531 -2.078125 25.15625 -2.046875 C 23.25 -2.046875 21.570312 -2.640625 20.125 -3.828125 C 18.6875 -5.015625 17.640625 -6.640625 16.984375 -8.703125 L 10.328125 -29.359375 L 8.921875 -6.59375 C 8.890625 -5.625 9.054688 -4.601562 9.421875 -3.53125 C 9.796875 -2.457031 10.234375 -1.535156 10.734375 -0.765625 L 11.265625 0.109375 L 2.390625 0.109375 L 2.921875 -0.765625 C 3.460938 -1.535156 3.890625 -2.457031 4.203125 -3.53125 C 4.515625 -4.601562 4.691406 -5.625 4.734375 -6.59375 L 6.53125 -34.375 C 5.71875 -34.914062 5.066406 -35.648438 4.578125 -36.578125 C 4.097656 -37.515625 3.859375 -38.609375 3.859375 -39.859375 C 3.859375 -40.753906 4.03125 -41.507812 4.375 -42.125 C 4.726562 -42.75 5.097656 -43.179688 5.484375 -43.421875 C 6.265625 -42.441406 7.609375 -41.707031 9.515625 -41.21875 C 11.421875 -40.738281 13.40625 -40.5 15.46875 -40.5 C 16.59375 -40.5 17.695312 -40.578125 18.78125 -40.734375 C 19.875 -40.890625 20.847656 -41.125 21.703125 -41.4375 Z M 21.703125 -41.4375 "/></g></g></g><g fill="#ffffff" fill-opacity="1"><g transform="translate(693.529255, 64.200384)"><g><path d="M 22.46875 -3.625 C 21.84375 -2.300781 20.894531 -1.25 19.625 -0.46875 C 18.363281 0.3125 16.898438 0.722656 15.234375 0.765625 C 12.585938 0.796875 10.222656 0.40625 8.140625 -0.40625 C 6.054688 -1.226562 4.421875 -2.453125 3.234375 -4.078125 C 2.046875 -5.710938 1.453125 -7.71875 1.453125 -10.09375 C 1.453125 -11.6875 1.84375 -13 2.625 -14.03125 C 3.40625 -15.0625 4.414062 -15.828125 5.65625 -16.328125 C 6.90625 -16.835938 8.25 -17.09375 9.6875 -17.09375 C 11.050781 -17.09375 12.351562 -16.914062 13.59375 -16.5625 C 14.84375 -16.21875 16.128906 -16.046875 17.453125 -16.046875 C 18.304688 -16.046875 19.039062 -16.160156 19.65625 -16.390625 C 20.28125 -16.628906 20.757812 -17.15625 21.09375 -17.96875 C 21.425781 -18.789062 21.515625 -20.078125 21.359375 -21.828125 C 21.285156 -22.835938 21.0625 -23.75 20.6875 -24.5625 C 20.320312 -25.382812 19.628906 -25.796875 18.609375 -25.796875 C 17.953125 -25.796875 17.492188 -25.585938 17.234375 -25.171875 C 16.984375 -24.765625 16.789062 -24.257812 16.65625 -23.65625 C 16.519531 -23.0625 16.328125 -22.453125 16.078125 -21.828125 C 15.828125 -21.203125 15.410156 -20.6875 14.828125 -20.28125 C 14.242188 -19.875 13.347656 -19.671875 12.140625 -19.671875 C 10.117188 -19.671875 8.40625 -20.265625 7 -21.453125 C 5.601562 -22.640625 4.90625 -24.300781 4.90625 -26.4375 C 4.90625 -27.0625 5.03125 -27.710938 5.28125 -28.390625 C 5.53125 -29.066406 5.945312 -29.601562 6.53125 -30 C 7.894531 -28.132812 9.742188 -27.203125 12.078125 -27.203125 C 13.484375 -27.203125 14.882812 -27.375 16.28125 -27.71875 C 17.6875 -28.070312 19.109375 -28.25 20.546875 -28.25 C 22.253906 -28.25 23.972656 -28.039062 25.703125 -27.625 C 27.429688 -27.21875 29.023438 -26.566406 30.484375 -25.671875 C 31.953125 -24.773438 33.128906 -23.617188 34.015625 -22.203125 C 34.910156 -20.785156 35.359375 -19.082031 35.359375 -17.09375 C 35.359375 -16.550781 35.335938 -15.707031 35.296875 -14.5625 C 35.265625 -13.414062 35.273438 -12.171875 35.328125 -10.828125 C 35.390625 -9.484375 35.554688 -8.195312 35.828125 -6.96875 C 36.097656 -5.75 36.515625 -4.726562 37.078125 -3.90625 C 37.648438 -3.09375 38.421875 -2.6875 39.390625 -2.6875 C 39.078125 -1.789062 38.53125 -1.085938 37.75 -0.578125 C 36.976562 -0.078125 36.125 0.257812 35.1875 0.4375 C 34.257812 0.613281 33.363281 0.703125 32.5 0.703125 C 30.132812 0.703125 28.125 0.398438 26.46875 -0.203125 C 24.8125 -0.804688 23.476562 -1.945312 22.46875 -3.625 Z M 14.59375 -10.453125 C 14.59375 -9.160156 15.007812 -7.941406 15.84375 -6.796875 C 16.675781 -5.648438 17.796875 -5.078125 19.203125 -5.078125 C 19.941406 -5.078125 20.445312 -5.289062 20.71875 -5.71875 C 20.988281 -6.144531 21.148438 -6.648438 21.203125 -7.234375 C 21.265625 -7.816406 21.316406 -8.304688 21.359375 -8.703125 C 21.359375 -9.628906 21.359375 -10.550781 21.359375 -11.46875 C 21.359375 -12.382812 21.378906 -13.304688 21.421875 -14.234375 C 20.910156 -13.804688 20.273438 -13.59375 19.515625 -13.59375 C 18.765625 -13.59375 18.007812 -13.582031 17.25 -13.5625 C 16.488281 -13.550781 15.851562 -13.335938 15.34375 -12.921875 C 14.84375 -12.515625 14.59375 -11.691406 14.59375 -10.453125 Z M 14.59375 -10.453125 "/></g></g></g><g fill="#ffffff" fill-opacity="1"><g transform="translate(734.030598, 64.200384)"><g><path d="M 45.28125 -2.859375 C 45.007812 -2.117188 44.347656 -1.457031 43.296875 -0.875 C 42.253906 -0.289062 41.007812 0.160156 39.5625 0.484375 C 38.125 0.816406 36.707031 0.945312 35.3125 0.875 C 33.132812 0.71875 31.410156 0.347656 30.140625 -0.234375 C 28.878906 -0.816406 27.925781 -1.546875 27.28125 -2.421875 C 26.632812 -3.296875 26.128906 -4.25 25.765625 -5.28125 C 25.398438 -6.3125 25.019531 -7.320312 24.625 -8.3125 C 24.238281 -9.300781 23.6875 -10.222656 22.96875 -11.078125 C 22.25 -11.941406 21.1875 -12.625 19.78125 -13.125 C 19.4375 -13.164062 19.164062 -13.265625 18.96875 -13.421875 C 18.882812 -12.992188 18.820312 -12.578125 18.78125 -12.171875 C 18.75 -11.765625 18.710938 -11.363281 18.671875 -10.96875 C 18.671875 -9.644531 18.75 -8.34375 18.90625 -7.0625 C 19.0625 -5.78125 19.410156 -4.71875 19.953125 -3.875 C 20.503906 -3.039062 21.363281 -2.625 22.53125 -2.625 C 22.644531 -2.625 22.722656 -2.644531 22.765625 -2.6875 C 22.367188 -1.59375 21.460938 -0.734375 20.046875 -0.109375 C 18.628906 0.503906 16.945312 0.832031 15 0.875 C 11.925781 0.875 9.445312 0.210938 7.5625 -1.109375 C 5.675781 -2.429688 4.734375 -4.628906 4.734375 -7.703125 L 4.78125 -35.25 C 3.96875 -35.789062 3.316406 -36.53125 2.828125 -37.46875 C 2.335938 -38.40625 2.09375 -39.492188 2.09375 -40.734375 C 2.09375 -41.628906 2.269531 -42.382812 2.625 -43 C 2.976562 -43.625 3.347656 -44.054688 3.734375 -44.296875 C 4.546875 -43.203125 5.660156 -42.460938 7.078125 -42.078125 C 8.503906 -41.691406 10 -41.5 11.5625 -41.5 C 12.882812 -41.5 14.164062 -41.570312 15.40625 -41.71875 C 16.65625 -41.875 17.765625 -42.015625 18.734375 -42.140625 L 18.734375 -20.546875 C 19.703125 -22.679688 21.140625 -24.476562 23.046875 -25.9375 C 24.953125 -27.394531 27.382812 -28.320312 30.34375 -28.71875 C 32.332031 -28.988281 34.179688 -28.859375 35.890625 -28.328125 C 37.597656 -27.804688 38.957031 -26.972656 39.96875 -25.828125 C 40.988281 -24.679688 41.398438 -23.304688 41.203125 -21.703125 C 41.046875 -20.265625 40.476562 -19.03125 39.5 -18 C 38.53125 -16.96875 37.316406 -16.113281 35.859375 -15.4375 C 34.398438 -14.757812 32.832031 -14.222656 31.15625 -13.828125 C 29.488281 -13.441406 27.875 -13.171875 26.3125 -13.015625 C 27.675781 -12.742188 28.988281 -12.421875 30.25 -12.046875 C 31.519531 -11.679688 32.835938 -11.5 34.203125 -11.5 C 35.367188 -11.5 36.535156 -11.691406 37.703125 -12.078125 C 37.972656 -10.753906 38.390625 -9.375 38.953125 -7.9375 C 39.515625 -6.5 40.28125 -5.28125 41.25 -4.28125 C 42.226562 -3.289062 43.476562 -2.796875 45 -2.796875 C 45.113281 -2.796875 45.207031 -2.816406 45.28125 -2.859375 Z M 19.078125 -14.1875 C 19.203125 -14.1875 19.335938 -14.175781 19.484375 -14.15625 C 19.640625 -14.132812 19.796875 -14.101562 19.953125 -14.0625 C 22.367188 -14.019531 24.328125 -14.347656 25.828125 -15.046875 C 27.328125 -15.753906 28.414062 -16.640625 29.09375 -17.703125 C 29.769531 -18.773438 30.097656 -19.847656 30.078125 -20.921875 C 30.066406 -21.992188 29.75 -22.867188 29.125 -23.546875 C 28.5 -24.222656 27.625 -24.503906 26.5 -24.390625 C 25.363281 -24.273438 24.289062 -23.710938 23.28125 -22.703125 C 22.269531 -21.691406 21.40625 -20.425781 20.6875 -18.90625 C 19.96875 -17.382812 19.429688 -15.8125 19.078125 -14.1875 Z M 19.078125 -14.1875 "/></g></g></g><g fill="#ffffff" fill-opacity="1"><g transform="translate(780.426183, 64.200384)"><g><path d="M 22.46875 -3.625 C 21.84375 -2.300781 20.894531 -1.25 19.625 -0.46875 C 18.363281 0.3125 16.898438 0.722656 15.234375 0.765625 C 12.585938 0.796875 10.222656 0.40625 8.140625 -0.40625 C 6.054688 -1.226562 4.421875 -2.453125 3.234375 -4.078125 C 2.046875 -5.710938 1.453125 -7.71875 1.453125 -10.09375 C 1.453125 -11.6875 1.84375 -13 2.625 -14.03125 C 3.40625 -15.0625 4.414062 -15.828125 5.65625 -16.328125 C 6.90625 -16.835938 8.25 -17.09375 9.6875 -17.09375 C 11.050781 -17.09375 12.351562 -16.914062 13.59375 -16.5625 C 14.84375 -16.21875 16.128906 -16.046875 17.453125 -16.046875 C 18.304688 -16.046875 19.039062 -16.160156 19.65625 -16.390625 C 20.28125 -16.628906 20.757812 -17.15625 21.09375 -17.96875 C 21.425781 -18.789062 21.515625 -20.078125 21.359375 -21.828125 C 21.285156 -22.835938 21.0625 -23.75 20.6875 -24.5625 C 20.320312 -25.382812 19.628906 -25.796875 18.609375 -25.796875 C 17.953125 -25.796875 17.492188 -25.585938 17.234375 -25.171875 C 16.984375 -24.765625 16.789062 -24.257812 16.65625 -23.65625 C 16.519531 -23.0625 16.328125 -22.453125 16.078125 -21.828125 C 15.828125 -21.203125 15.410156 -20.6875 14.828125 -20.28125 C 14.242188 -19.875 13.347656 -19.671875 12.140625 -19.671875 C 10.117188 -19.671875 8.40625 -20.265625 7 -21.453125 C 5.601562 -22.640625 4.90625 -24.300781 4.90625 -26.4375 C 4.90625 -27.0625 5.03125 -27.710938 5.28125 -28.390625 C 5.53125 -29.066406 5.945312 -29.601562 6.53125 -30 C 7.894531 -28.132812 9.742188 -27.203125 12.078125 -27.203125 C 13.484375 -27.203125 14.882812 -27.375 16.28125 -27.71875 C 17.6875 -28.070312 19.109375 -28.25 20.546875 -28.25 C 22.253906 -28.25 23.972656 -28.039062 25.703125 -27.625 C 27.429688 -27.21875 29.023438 -26.566406 30.484375 -25.671875 C 31.953125 -24.773438 33.128906 -23.617188 34.015625 -22.203125 C 34.910156 -20.785156 35.359375 -19.082031 35.359375 -17.09375 C 35.359375 -16.550781 35.335938 -15.707031 35.296875 -14.5625 C 35.265625 -13.414062 35.273438 -12.171875 35.328125 -10.828125 C 35.390625 -9.484375 35.554688 -8.195312 35.828125 -6.96875 C 36.097656 -5.75 36.515625 -4.726562 37.078125 -3.90625 C 37.648438 -3.09375 38.421875 -2.6875 39.390625 -2.6875 C 39.078125 -1.789062 38.53125 -1.085938 37.75 -0.578125 C 36.976562 -0.078125 36.125 0.257812 35.1875 0.4375 C 34.257812 0.613281 33.363281 0.703125 32.5 0.703125 C 30.132812 0.703125 28.125 0.398438 26.46875 -0.203125 C 24.8125 -0.804688 23.476562 -1.945312 22.46875 -3.625 Z M 14.59375 -10.453125 C 14.59375 -9.160156 15.007812 -7.941406 15.84375 -6.796875 C 16.675781 -5.648438 17.796875 -5.078125 19.203125 -5.078125 C 19.941406 -5.078125 20.445312 -5.289062 20.71875 -5.71875 C 20.988281 -6.144531 21.148438 -6.648438 21.203125 -7.234375 C 21.265625 -7.816406 21.316406 -8.304688 21.359375 -8.703125 C 21.359375 -9.628906 21.359375 -10.550781 21.359375 -11.46875 C 21.359375 -12.382812 21.378906 -13.304688 21.421875 -14.234375 C 20.910156 -13.804688 20.273438 -13.59375 19.515625 -13.59375 C 18.765625 -13.59375 18.007812 -13.582031 17.25 -13.5625 C 16.488281 -13.550781 15.851562 -13.335938 15.34375 -12.921875 C 14.84375 -12.515625 14.59375 -11.691406 14.59375 -10.453125 Z M 14.59375 -10.453125 "/></g></g></g><g fill="#ffffff" fill-opacity="1"><g transform="translate(822.094826, 64.200384)"><g><path d="M 44.40625 -2.6875 C 44.019531 -1.59375 43.109375 -0.722656 41.671875 -0.078125 C 40.234375 0.554688 38.539062 0.875 36.59375 0.875 C 33.519531 0.914062 31.035156 0.265625 29.140625 -1.078125 C 27.253906 -2.421875 26.3125 -4.648438 26.3125 -7.765625 C 26.3125 -9.472656 26.332031 -11.300781 26.375 -13.25 C 26.414062 -15.195312 26.4375 -17.203125 26.4375 -19.265625 C 26.4375 -20.890625 26.394531 -22.171875 26.3125 -23.109375 C 26.238281 -24.046875 25.695312 -24.300781 24.6875 -23.875 C 24.21875 -23.675781 23.632812 -23.070312 22.9375 -22.0625 C 22.238281 -21.050781 21.554688 -19.804688 20.890625 -18.328125 C 20.234375 -16.847656 19.695312 -15.289062 19.28125 -13.65625 C 18.875 -12.019531 18.691406 -10.460938 18.734375 -8.984375 C 18.804688 -7.898438 18.945312 -6.867188 19.15625 -5.890625 C 19.375 -4.921875 19.742188 -4.132812 20.265625 -3.53125 C 20.796875 -2.925781 21.550781 -2.625 22.53125 -2.625 C 22.644531 -2.625 22.722656 -2.644531 22.765625 -2.6875 C 22.367188 -1.59375 21.460938 -0.734375 20.046875 -0.109375 C 18.628906 0.503906 16.945312 0.832031 15 0.875 C 11.925781 0.875 9.4375 0.210938 7.53125 -1.109375 C 5.625 -2.429688 4.691406 -4.628906 4.734375 -7.703125 L 4.78125 -20.890625 C 3.96875 -21.472656 3.316406 -22.226562 2.828125 -23.15625 C 2.335938 -24.09375 2.09375 -25.164062 2.09375 -26.375 C 2.09375 -27.269531 2.269531 -28.03125 2.625 -28.65625 C 2.976562 -29.28125 3.347656 -29.726562 3.734375 -30 C 4.515625 -28.90625 5.488281 -28.171875 6.65625 -27.796875 C 7.820312 -27.429688 9.066406 -27.25 10.390625 -27.25 C 11.398438 -27.25 12.410156 -27.316406 13.421875 -27.453125 C 14.429688 -27.585938 15.382812 -27.71875 16.28125 -27.84375 L 18.671875 -19.4375 C 19.566406 -21.96875 20.96875 -24.085938 22.875 -25.796875 C 24.78125 -27.503906 27.269531 -28.320312 30.34375 -28.25 C 33.34375 -28.164062 35.765625 -27.304688 37.609375 -25.671875 C 39.460938 -24.046875 40.390625 -21.617188 40.390625 -18.390625 C 40.390625 -18.191406 40.390625 -17.8125 40.390625 -17.25 C 40.390625 -16.6875 40.378906 -16.082031 40.359375 -15.4375 C 40.335938 -14.789062 40.328125 -14.234375 40.328125 -13.765625 C 40.328125 -12.679688 40.328125 -11.492188 40.328125 -10.203125 C 40.328125 -8.921875 40.414062 -7.707031 40.59375 -6.5625 C 40.769531 -5.414062 41.128906 -4.472656 41.671875 -3.734375 C 42.210938 -2.992188 43.03125 -2.625 44.125 -2.625 C 44.238281 -2.625 44.332031 -2.644531 44.40625 -2.6875 Z M 44.40625 -2.6875 "/></g></g></g><g fill="#ffffff" fill-opacity="1"><g transform="translate(322.369974, 150.189234)"><g><path d="M 52.75 -1.515625 L 51.40625 -2.6875 L 49.078125 -5.28125 L 35.21875 -19.046875 L 33.703125 -20.03125 L 32.546875 -21.375 L 26.203125 -27.453125 L 25.03125 -28.96875 L 23.875 -29.421875 L 23.25 -27.890625 L 23.0625 -26.109375 L 22.984375 -3.484375 L 22.078125 -0.71875 L 20.296875 0.171875 L 18.421875 0.265625 L 14.9375 0 L 12.96875 0.171875 L 9.296875 0 L 7.421875 -0.625 L 6.609375 -2.328125 L 6.4375 -9.828125 L 6.609375 -11.53125 L 6.4375 -26.203125 L 6.703125 -27.71875 L 6.53125 -31.375 L 6.609375 -32.90625 L 6.609375 -59.984375 L 7.421875 -61.6875 L 9.484375 -62.578125 L 12.15625 -61.953125 L 14.21875 -60.890625 L 15.5625 -59.8125 L 33.171875 -42.015625 L 35.671875 -40.046875 L 42.015625 -33.703125 L 43.359375 -33.078125 L 43.90625 -34.59375 L 44.078125 -50.609375 L 43.90625 -52.578125 L 44.171875 -56.328125 L 43.90625 -57.75 L 43.984375 -59.640625 L 44.96875 -61.515625 L 46.671875 -62.5 L 57.75 -62.578125 L 59.546875 -61.59375 L 60.4375 -59.8125 L 60.703125 -47.390625 L 60.4375 -45.234375 L 60.4375 -36.390625 L 60.703125 -34.875 L 60.53125 -2.234375 L 59.640625 -0.453125 L 57.671875 0.171875 L 55.15625 -0.09375 Z M 52.75 -1.515625 "/></g></g></g><g fill="#ffffff" fill-opacity="1"><g transform="translate(396.034591, 150.189234)"><g><path d="M 52.75 0.171875 L 50.875 0 L 48.8125 -0.890625 L 47.03125 -2.234375 L 46.484375 -3.84375 L 45.6875 -5.546875 L 43.984375 -6.96875 L 42.015625 -7.953125 L 40.046875 -7.6875 L 38.4375 -7.875 L 29.6875 -7.78125 L 28.078125 -8.046875 L 24.3125 -7.6875 L 22.625 -7.953125 L 20.75 -6.96875 L 19.046875 -5.28125 L 17.4375 -2.328125 L 15.734375 -0.71875 L 13.671875 -0.09375 L 8.671875 0.09375 L 6.890625 -0.09375 L 3.390625 0.09375 L 1.609375 -0.453125 L 1.15625 -2.6875 L 1.703125 -4.46875 L 3.484375 -8.046875 L 3.9375 -9.65625 L 4.921875 -10.90625 L 6.265625 -14.484375 L 7.875 -17.34375 L 8.5 -19.140625 L 9.390625 -20.46875 L 9.921875 -22.4375 L 19.046875 -41.578125 L 19.578125 -43.1875 L 20.5625 -44.875 L 21.015625 -46.671875 L 22 -48.015625 L 25.5625 -56.234375 L 26.375 -57.484375 L 27 -59.28125 L 27.8125 -60.796875 L 29.421875 -62.3125 L 32.28125 -63.296875 L 35.21875 -62.40625 L 36.75 -60.796875 L 38.4375 -57.671875 L 38.984375 -56.0625 L 39.96875 -54.453125 L 40.5 -52.65625 L 46.40625 -40.234375 L 47.03125 -38.359375 L 48.90625 -35.046875 L 49.4375 -33.609375 L 50.25 -32.28125 L 50.78125 -30.3125 L 51.671875 -28.609375 L 52.578125 -27.265625 L 55.96875 -19.140625 L 57.75 -15.921875 L 59.015625 -12.609375 L 61.421875 -7.953125 L 62.765625 -4.65625 L 63.390625 -2.59375 L 63.125 -0.453125 L 60.625 0 L 57.84375 0.09375 L 56.140625 -0.09375 Z M 32.453125 -22.078125 L 36.03125 -22.171875 L 37.375 -22.890625 L 37.734375 -24.5 L 33.53125 -34.328125 L 32.28125 -35.046875 L 31.296875 -34.25 L 27.09375 -24.59375 L 27.171875 -22.890625 L 28.609375 -22.265625 L 30.671875 -22.4375 Z M 32.453125 -22.078125 "/></g></g></g><g fill="#ffffff" fill-opacity="1"><g transform="translate(467.196056, 150.189234)"><g><path d="M 52.75 -1.515625 L 51.40625 -2.6875 L 49.078125 -5.28125 L 35.21875 -19.046875 L 33.703125 -20.03125 L 32.546875 -21.375 L 26.203125 -27.453125 L 25.03125 -28.96875 L 23.875 -29.421875 L 23.25 -27.890625 L 23.0625 -26.109375 L 22.984375 -3.484375 L 22.078125 -0.71875 L 20.296875 0.171875 L 18.421875 0.265625 L 14.9375 0 L 12.96875 0.171875 L 9.296875 0 L 7.421875 -0.625 L 6.609375 -2.328125 L 6.4375 -9.828125 L 6.609375 -11.53125 L 6.4375 -26.203125 L 6.703125 -27.71875 L 6.53125 -31.375 L 6.609375 -32.90625 L 6.609375 -59.984375 L 7.421875 -61.6875 L 9.484375 -62.578125 L 12.15625 -61.953125 L 14.21875 -60.890625 L 15.5625 -59.8125 L 33.171875 -42.015625 L 35.671875 -40.046875 L 42.015625 -33.703125 L 43.359375 -33.078125 L 43.90625 -34.59375 L 44.078125 -50.609375 L 43.90625 -52.578125 L 44.171875 -56.328125 L 43.90625 -57.75 L 43.984375 -59.640625 L 44.96875 -61.515625 L 46.671875 -62.5 L 57.75 -62.578125 L 59.546875 -61.59375 L 60.4375 -59.8125 L 60.703125 -47.390625 L 60.4375 -45.234375 L 60.4375 -36.390625 L 60.703125 -34.875 L 60.53125 -2.234375 L 59.640625 -0.453125 L 57.671875 0.171875 L 55.15625 -0.09375 Z M 52.75 -1.515625 "/></g></g></g><g fill="#ffffff" fill-opacity="1"><g transform="translate(540.860674, 150.189234)"><g><path d="M 29.953125 0.359375 L 28.15625 -0.09375 L 23.78125 -0.09375 L 21.09375 0.265625 L 17.53125 -0.09375 L 15.734375 0.09375 L 12.96875 0.171875 L 10.375 -0.171875 L 8.671875 0 L 6.96875 0 L 5.1875 -0.796875 L 4.296875 -3.21875 L 4.5625 -11.4375 L 5.546875 -13.046875 L 11.4375 -14.84375 L 12.421875 -17.53125 L 12.15625 -44.96875 L 11.359375 -47.390625 L 9.65625 -48.453125 L 7.875 -48.453125 L 5.90625 -49.4375 L 4.921875 -51.234375 L 5.09375 -52.921875 L 4.828125 -59.546875 L 5.71875 -61.6875 L 7.515625 -62.578125 L 9.5625 -62.578125 L 11.265625 -62.3125 L 18.59375 -62.3125 L 20.390625 -62.671875 L 22 -62.5 L 32.8125 -62.5 L 34.421875 -61.515625 L 35.5 -59.8125 L 35.40625 -50.96875 L 34.515625 -49.53125 L 32.640625 -48.8125 L 30.84375 -48.546875 L 28.875 -47.75 L 28.25 -45.6875 L 27.890625 -36.65625 L 28.25 -30.21875 L 28.078125 -28.25 L 28.15625 -18.421875 L 27.890625 -16.71875 L 28.96875 -14.65625 L 31.109375 -13.953125 L 32.984375 -13.953125 L 34.953125 -12.96875 L 36.03125 -11.265625 L 36.03125 -2.40625 L 35.140625 -0.71875 L 33.53125 0.171875 Z M 29.953125 0.359375 "/></g></g></g><g fill="#ffffff" fill-opacity="1"><g transform="translate(587.705782, 150.189234)"><g/></g></g><g fill="#ffffff" fill-opacity="1"><g transform="translate(618.191014, 150.189234)"><g><path d="M 3.21875 -27.359375 L 3.21875 -34.953125 L 4.015625 -36.65625 L 5.90625 -37.734375 L 7.59375 -37.90625 L 9.390625 -37.734375 L 19.765625 -37.90625 L 21.453125 -37.546875 L 30.484375 -37.640625 L 32.28125 -36.65625 L 32.90625 -34.6875 L 33.078125 -27.453125 L 32 -25.5625 L 29.328125 -24.671875 L 24.046875 -24.59375 L 22.265625 -24.859375 L 16.1875 -24.859375 L 14.65625 -24.59375 L 11.09375 -24.859375 L 9.390625 -24.5 L 7.515625 -24.671875 L 5.625 -24.59375 L 4.015625 -25.65625 Z M 3.21875 -27.359375 "/></g></g></g><g fill="#ffffff" fill-opacity="1"><g transform="translate(661.102611, 150.189234)"><g/></g></g><g fill="#ffffff" fill-opacity="1"><g transform="translate(691.587844, 150.189234)"><g><path d="M 6.703125 -2.765625 L 6.53125 -4.46875 L 6.703125 -24.046875 L 6.4375 -26.734375 L 6.796875 -43.8125 L 6.53125 -47.5625 L 6.703125 -52.84375 L 6.609375 -54.453125 L 6.703125 -56.328125 L 6.53125 -57.9375 L 6.53125 -59.90625 L 7.421875 -61.78125 L 9.390625 -62.671875 L 20.203125 -62.5 L 21.8125 -62.859375 L 25.296875 -62.40625 L 26.90625 -62.765625 L 36.125 -62.5 L 39.609375 -61.6875 L 41.125 -61.15625 L 42.828125 -60.34375 L 44.34375 -59.453125 L 45.59375 -58.46875 L 46.9375 -57.578125 L 48.28125 -56.328125 L 51.234375 -52.21875 L 51.859375 -50.328125 L 52.578125 -47.109375 L 52.75 -44.34375 L 52.65625 -41.3125 L 51.59375 -38.09375 L 49.890625 -34.59375 L 49.265625 -32.90625 L 50.15625 -30.84375 L 51.59375 -29.59375 L 52.75 -28.25 L 54.359375 -24.59375 L 55.34375 -21.375 L 55.15625 -14.125 L 54.453125 -12.421875 L 53.90625 -10.734375 L 53.015625 -8.9375 L 50.609375 -5.625 L 47.03125 -2.765625 L 45.421875 -1.96875 L 40.40625 -0.53125 L 38.796875 -0.265625 L 29.59375 0.171875 L 27.8125 -0.09375 L 14.84375 0.09375 L 12.15625 -0.171875 L 9.203125 0.09375 L 7.515625 -0.984375 Z M 25.03125 -38.171875 L 31.921875 -38.4375 L 34.515625 -39.34375 L 35.859375 -40.40625 L 36.484375 -43 L 36.203125 -45.6875 L 35.5 -47.109375 L 34.0625 -47.828125 L 24.859375 -48.453125 L 23.15625 -47.390625 L 22.078125 -44.796875 L 22.171875 -41.75 L 23.15625 -39.25 Z M 24.765625 -14.3125 L 31.65625 -14.125 L 36.5625 -14.578125 L 38.09375 -15.5625 L 39.078125 -16.8125 L 39.515625 -19.40625 L 38.984375 -21.640625 L 38.09375 -23.25 L 36.5625 -23.875 L 28.15625 -24.671875 L 26.28125 -24.5 L 24.59375 -24.765625 L 23.0625 -23.609375 L 22.265625 -22.078125 L 22 -16.71875 L 23.15625 -14.9375 Z M 24.765625 -14.3125 "/></g></g></g><g fill="#ffffff" fill-opacity="1"><g transform="translate(755.06098, 150.189234)"><g><path d="M 52.75 0.171875 L 50.875 0 L 48.8125 -0.890625 L 47.03125 -2.234375 L 46.484375 -3.84375 L 45.6875 -5.546875 L 43.984375 -6.96875 L 42.015625 -7.953125 L 40.046875 -7.6875 L 38.4375 -7.875 L 29.6875 -7.78125 L 28.078125 -8.046875 L 24.3125 -7.6875 L 22.625 -7.953125 L 20.75 -6.96875 L 19.046875 -5.28125 L 17.4375 -2.328125 L 15.734375 -0.71875 L 13.671875 -0.09375 L 8.671875 0.09375 L 6.890625 -0.09375 L 3.390625 0.09375 L 1.609375 -0.453125 L 1.15625 -2.6875 L 1.703125 -4.46875 L 3.484375 -8.046875 L 3.9375 -9.65625 L 4.921875 -10.90625 L 6.265625 -14.484375 L 7.875 -17.34375 L 8.5 -19.140625 L 9.390625 -20.46875 L 9.921875 -22.4375 L 19.046875 -41.578125 L 19.578125 -43.1875 L 20.5625 -44.875 L 21.015625 -46.671875 L 22 -48.015625 L 25.5625 -56.234375 L 26.375 -57.484375 L 27 -59.28125 L 27.8125 -60.796875 L 29.421875 -62.3125 L 32.28125 -63.296875 L 35.21875 -62.40625 L 36.75 -60.796875 L 38.4375 -57.671875 L 38.984375 -56.0625 L 39.96875 -54.453125 L 40.5 -52.65625 L 46.40625 -40.234375 L 47.03125 -38.359375 L 48.90625 -35.046875 L 49.4375 -33.609375 L 50.25 -32.28125 L 50.78125 -30.3125 L 51.671875 -28.609375 L 52.578125 -27.265625 L 55.96875 -19.140625 L 57.75 -15.921875 L 59.015625 -12.609375 L 61.421875 -7.953125 L 62.765625 -4.65625 L 63.390625 -2.59375 L 63.125 -0.453125 L 60.625 0 L 57.84375 0.09375 L 56.140625 -0.09375 Z M 32.453125 -22.078125 L 36.03125 -22.171875 L 37.375 -22.890625 L 37.734375 -24.5 L 33.53125 -34.328125 L 32.28125 -35.046875 L 31.296875 -34.25 L 27.09375 -24.59375 L 27.171875 -22.890625 L 28.609375 -22.265625 L 30.671875 -22.4375 Z M 32.453125 -22.078125 "/></g></g></g><g fill="#ffffff" fill-opacity="1"><g transform="translate(819.42792, 150.189234)"><g><path d="M 20.46875 -2.6875 L 20.5625 -6.078125 L 20.390625 -7.78125 L 20.5625 -14.65625 L 20.390625 -16.453125 L 20.46875 -23.515625 L 20.03125 -25.921875 L 19.140625 -28.4375 L 12.25 -39.34375 L 11.53125 -40.953125 L 9.390625 -43.8125 L 5.71875 -50.15625 L 4.734375 -51.40625 L 0.890625 -57.75 L 0 -59.8125 L 0.265625 -61.78125 L 2.0625 -62.671875 L 6.171875 -62.40625 L 10.734375 -62.765625 L 12.25 -62.40625 L 14.125 -62.5 L 16.1875 -61.6875 L 18.0625 -59.984375 L 22.265625 -52.125 L 23.25 -50.609375 L 25.921875 -45.59375 L 26.90625 -44.171875 L 27.890625 -42.46875 L 28.875 -42.46875 L 30.046875 -43.984375 L 31.5625 -47.390625 L 32.453125 -48.90625 L 33.34375 -50.78125 L 35.3125 -53.640625 L 36.390625 -56.328125 L 38.71875 -60.171875 L 40.328125 -61.6875 L 42.734375 -62.578125 L 44.25 -62.5 L 47.75 -62.578125 L 49.53125 -62.3125 L 51.40625 -62.5 L 54.890625 -62.40625 L 56.5 -62.046875 L 56.859375 -60.078125 L 55.875 -57.84375 L 50.15625 -48.375 L 49.078125 -47.109375 L 37.734375 -28.4375 L 36.828125 -26.109375 L 36.296875 -23.515625 L 36.390625 -18.328125 L 36.125 -16.71875 L 36.125 -14.9375 L 36.296875 -13.140625 L 36.03125 -2.765625 L 35.3125 -0.890625 L 33.53125 0.09375 L 31.734375 -0.09375 L 29.234375 0.09375 L 26.46875 -0.09375 L 24.859375 0.09375 L 23.0625 0 L 21.1875 -0.71875 Z M 20.46875 -2.6875 "/></g></g></g><g fill="#ffffff" fill-opacity="1"><g transform="translate(882.543558, 150.189234)"><g><path d="M 30.75 1.15625 L 27.890625 0.984375 L 26.109375 0.984375 L 22.625 0.265625 L 19.21875 -1.25 L 17.875 -2.0625 L 16.09375 -2.859375 L 13.234375 -4.734375 L 11.890625 -5.90625 L 10.8125 -7.15625 L 8.765625 -10.375 L 7.328125 -13.40625 L 6.4375 -17.078125 L 5.90625 -24.234375 L 6.171875 -38.625 L 5.984375 -40.328125 L 6.265625 -42.109375 L 5.984375 -54.625 L 6.171875 -56.0625 L 6.171875 -58.203125 L 5.984375 -59.984375 L 7.15625 -61.6875 L 9.03125 -62.40625 L 10.90625 -62.671875 L 14.75 -62.3125 L 16.546875 -62.578125 L 18.234375 -62.578125 L 20.109375 -61.78125 L 21.1875 -59.8125 L 21.375 -57.21875 L 21.1875 -54.359375 L 21.375 -53.015625 L 21.09375 -24.234375 L 21.640625 -19.046875 L 22.171875 -17.34375 L 23.25 -15.921875 L 24.671875 -14.84375 L 26.203125 -13.953125 L 28.25 -13.5 L 33.609375 -13.5 L 36.75 -14.65625 L 38.265625 -15.734375 L 39.25 -17.53125 L 39.78125 -18.859375 L 40.40625 -24.40625 L 40.234375 -59.640625 L 41.21875 -61.59375 L 43.09375 -62.5 L 46.84375 -62.234375 L 52.484375 -62.40625 L 54.453125 -61.78125 L 55.609375 -59.90625 L 55.34375 -58.109375 L 55.34375 -50.6875 L 55.515625 -49.265625 L 55.34375 -47.296875 L 55.515625 -45.59375 L 55.515625 -21.453125 L 55.078125 -17.171875 L 54.265625 -13.40625 L 53.375 -11.890625 L 52.84375 -10.109375 L 50.78125 -6.96875 L 48.28125 -4.46875 L 45.328125 -2.5 L 42.109375 -0.796875 L 35.140625 0.984375 L 33.4375 0.890625 Z M 30.75 1.15625 "/></g></g></g><g clip-path="url(#7e5112d760)"><path stroke-linecap="round" transform="matrix(0.00449785, -0.747992, 0.747992, 0.00449785, 290.328377, 167.574919)" fill="none" stroke-linejoin="miter" d="M 5.501788 5.502235 L 204.926388 5.49896 " stroke="#ffffff" stroke-width="11" stroke-opacity="1" stroke-miterlimit="4"/></g></svg>