<svg xmlns="http://www.w3.org/2000/svg" xmlns:xlink="http://www.w3.org/1999/xlink" width="1000" zoomAndPan="magnify" viewBox="0 0 750 299.999988" height="400" preserveAspectRatio="xMidYMid meet" version="1.0"><defs><g/><clipPath id="6cd67322d4"><path d="M 353.464844 226.929688 L 396.214844 226.929688 L 396.214844 269.679688 L 353.464844 269.679688 Z M 353.464844 226.929688 " clip-rule="nonzero"/></clipPath></defs><g fill="#ffffff" fill-opacity="1"><g transform="translate(20.585701, 199.395532)"><g><path d="M 17.828125 -4.375 C 17.234375 -2.914062 16.859375 -1.285156 16.703125 0.515625 C 16.554688 2.328125 16.632812 3.972656 16.9375 5.453125 L 17.296875 7.109375 L 3.890625 1.75 L 5.265625 0.78125 C 6.554688 -0.0507812 7.753906 -1.175781 8.859375 -2.59375 C 9.972656 -4.019531 10.828125 -5.460938 11.421875 -6.921875 L 28.1875 -48.625 C 27.28125 -49.925781 26.742188 -51.421875 26.578125 -53.109375 C 26.410156 -54.804688 26.703125 -56.59375 27.453125 -58.46875 C 27.984375 -59.8125 28.695312 -60.84375 29.59375 -61.5625 C 30.488281 -62.289062 31.300781 -62.710938 32.03125 -62.828125 C 32.644531 -60.960938 33.929688 -59.210938 35.890625 -57.578125 C 37.847656 -55.953125 40.113281 -54.625 42.6875 -53.59375 C 45.78125 -52.351562 48.867188 -51.695312 51.953125 -51.625 C 52.242188 -45.40625 52.644531 -39.550781 53.15625 -34.0625 C 53.675781 -28.570312 54.15625 -22.71875 54.59375 -16.5 C 54.832031 -13.550781 55.132812 -10.460938 55.5 -7.234375 C 55.875 -4.003906 56.328125 -1.03125 56.859375 1.6875 C 57.398438 4.40625 58.085938 6.507812 58.921875 8 L 74.296875 -30.1875 C 73.390625 -31.5 72.851562 -33 72.6875 -34.6875 C 72.519531 -36.382812 72.8125 -38.171875 73.5625 -40.046875 C 74.09375 -41.390625 74.804688 -42.421875 75.703125 -43.140625 C 76.609375 -43.859375 77.421875 -44.28125 78.140625 -44.40625 C 78.617188 -42.382812 79.445312 -40.847656 80.625 -39.796875 C 81.800781 -38.753906 82.972656 -38 84.140625 -37.53125 C 84.898438 -37.226562 85.585938 -37.003906 86.203125 -36.859375 C 86.828125 -36.722656 87.351562 -36.597656 87.78125 -36.484375 L 86 -35.0625 C 84.8125 -34.113281 83.6875 -32.898438 82.625 -31.421875 C 81.5625 -29.941406 80.738281 -28.472656 80.15625 -27.015625 L 63.84375 14.03125 C 63.25 15.488281 62.890625 17.125 62.765625 18.9375 C 62.648438 20.757812 62.742188 22.40625 63.046875 23.875 L 63.375 25.328125 L 47.421875 18.953125 C 44.597656 17.898438 41.957031 15.945312 39.5 13.09375 C 37.039062 10.25 35.472656 6.21875 34.796875 1 L 30.265625 -35.796875 Z M 17.828125 -4.375 "/></g></g></g><g fill="#ffffff" fill-opacity="1"><g transform="translate(108.947778, 233.421591)"><g><path d="M 16.609375 -6.140625 C 15.734375 -4.890625 15.125 -3.410156 14.78125 -1.703125 C 14.4375 -0.00390625 14.410156 1.632812 14.703125 3.21875 L 14.859375 4.359375 L -0.046875 0.1875 L 1.78125 -1.078125 C 3.0625 -1.953125 4.363281 -3.054688 5.6875 -4.390625 C 7.007812 -5.722656 8.109375 -7.015625 8.984375 -8.265625 L 38 -51.140625 C 37.070312 -52.960938 36.484375 -55.054688 36.234375 -57.421875 C 36.128906 -58.941406 36.316406 -60.15625 36.796875 -61.0625 C 37.285156 -61.976562 37.796875 -62.5625 38.328125 -62.8125 C 39.535156 -60.84375 41.335938 -59.175781 43.734375 -57.8125 C 46.140625 -56.457031 48.734375 -55.320312 51.515625 -54.40625 C 54.304688 -53.5 56.988281 -52.800781 59.5625 -52.3125 C 62.132812 -51.832031 64.203125 -51.472656 65.765625 -51.234375 L 64.875 -49.421875 C 64.28125 -48.210938 63.820312 -46.738281 63.5 -45 C 63.175781 -43.269531 63.039062 -41.578125 63.09375 -39.921875 L 65.53125 7.21875 C 65.582031 8.875 65.921875 10.6875 66.546875 12.65625 C 67.179688 14.625 67.960938 16.390625 68.890625 17.953125 L 69.96875 19.734375 L 40.421875 11.484375 L 41.15625 10.21875 C 41.863281 9.101562 42.414062 7.703125 42.8125 6.015625 C 43.21875 4.335938 43.394531 2.671875 43.34375 1.015625 L 42.90625 -6.25 L 20.8125 -12.421875 Z M 41.34375 -42.75 L 24.15625 -17.359375 L 42.71875 -12.171875 Z M 41.34375 -42.75 "/></g></g></g><g fill="#ffffff" fill-opacity="1"><g transform="translate(201.013378, 257.853157)"><g><path d="M 16.46875 -8.09375 C 16.207031 -6.539062 16.195312 -4.863281 16.4375 -3.0625 C 16.6875 -1.257812 17.113281 0.320312 17.71875 1.6875 L 18.40625 3.25 L 4.15625 0.890625 L 5.328125 -0.375 C 6.398438 -1.457031 7.328125 -2.8125 8.109375 -4.4375 C 8.890625 -6.070312 9.410156 -7.664062 9.671875 -9.21875 L 17.109375 -53.53125 C 15.953125 -54.613281 15.109375 -55.960938 14.578125 -57.578125 C 14.054688 -59.191406 13.957031 -60.992188 14.28125 -62.984375 C 14.519531 -64.410156 15 -65.578125 15.71875 -66.484375 C 16.4375 -67.390625 17.140625 -67.972656 17.828125 -68.234375 C 18.828125 -66.535156 20.457031 -65.097656 22.71875 -63.921875 C 24.976562 -62.753906 27.472656 -61.941406 30.203125 -61.484375 C 33.492188 -60.941406 36.65625 -60.960938 39.6875 -61.546875 C 41.3125 -55.535156 42.960938 -49.90625 44.640625 -44.65625 C 46.316406 -39.40625 48.035156 -33.789062 49.796875 -27.8125 C 50.660156 -24.988281 51.617188 -22.035156 52.671875 -18.953125 C 53.722656 -15.878906 54.800781 -13.070312 55.90625 -10.53125 C 57.019531 -7.988281 58.140625 -6.082031 59.265625 -4.8125 L 66.09375 -45.40625 C 64.9375 -46.488281 64.09375 -47.835938 63.5625 -49.453125 C 63.039062 -51.066406 62.941406 -52.867188 63.265625 -54.859375 C 63.503906 -56.285156 63.984375 -57.445312 64.703125 -58.34375 C 65.429688 -59.25 66.140625 -59.835938 66.828125 -60.109375 C 67.722656 -58.242188 68.851562 -56.921875 70.21875 -56.140625 C 71.59375 -55.367188 72.90625 -54.882812 74.15625 -54.6875 C 74.957031 -54.550781 75.675781 -54.476562 76.3125 -54.46875 C 76.945312 -54.46875 77.484375 -54.460938 77.921875 -54.453125 L 76.484375 -52.671875 C 75.523438 -51.492188 74.679688 -50.070312 73.953125 -48.40625 C 73.234375 -46.738281 72.742188 -45.128906 72.484375 -43.578125 L 65.359375 0.015625 C 65.097656 1.566406 65.101562 3.242188 65.375 5.046875 C 65.65625 6.859375 66.097656 8.445312 66.703125 9.8125 L 67.328125 11.171875 L 50.390625 8.359375 C 47.398438 7.929688 44.394531 6.585938 41.375 4.328125 C 38.363281 2.078125 35.972656 -1.523438 34.203125 -6.484375 L 21.90625 -41.453125 Z M 16.46875 -8.09375 "/></g></g></g><g fill="#ffffff" fill-opacity="1"><g transform="translate(294.107013, 271.590262)"><g><path d="M 32.625 -8.234375 C 32.5 -6.660156 32.640625 -4.988281 33.046875 -3.21875 C 33.453125 -1.445312 34.015625 0.0859375 34.734375 1.390625 L 35.5625 2.875 L 4.96875 0.5625 L 6.03125 -0.78125 C 7 -1.957031 7.796875 -3.390625 8.421875 -5.078125 C 9.054688 -6.773438 9.4375 -8.410156 9.5625 -9.984375 L 13.03125 -54.78125 C 11.789062 -55.757812 10.847656 -57.03125 10.203125 -58.59375 C 9.566406 -60.15625 9.320312 -61.941406 9.46875 -63.953125 C 9.582031 -65.398438 9.941406 -66.601562 10.546875 -67.5625 C 11.160156 -68.519531 11.796875 -69.160156 12.453125 -69.484375 C 13.691406 -67.566406 15.828125 -66.175781 18.859375 -65.3125 C 21.890625 -64.457031 25.035156 -63.90625 28.296875 -63.65625 C 30.679688 -63.476562 32.929688 -63.398438 35.046875 -63.421875 C 37.160156 -63.453125 38.921875 -63.515625 40.328125 -63.609375 L 39.03125 -61.71875 C 38.1875 -60.457031 37.472656 -58.960938 36.890625 -57.234375 C 36.316406 -55.503906 35.972656 -53.851562 35.859375 -52.28125 Z M 32.625 -8.234375 "/></g></g></g><g fill="#ffffff" fill-opacity="1"><g transform="translate(355.58804, 275.395271)"><g/></g></g><g fill="#ffffff" fill-opacity="1"><g transform="translate(408.158405, 275.954729)"><g><path d="M 1.265625 -70.515625 C 2.710938 -68.847656 4.976562 -67.8125 8.0625 -67.40625 C 11.15625 -67.007812 14.332031 -66.929688 17.59375 -67.171875 C 19.988281 -67.347656 22.257812 -67.609375 24.40625 -67.953125 C 26.550781 -68.304688 28.304688 -68.628906 29.671875 -68.921875 C 31.753906 -69.078125 34.050781 -69.164062 36.5625 -69.1875 C 39.082031 -69.207031 41.617188 -69.046875 44.171875 -68.703125 C 46.734375 -68.359375 49.101562 -67.707031 51.28125 -66.75 C 53.457031 -65.800781 55.253906 -64.445312 56.671875 -62.6875 C 58.097656 -60.9375 58.914062 -58.648438 59.125 -55.828125 C 59.394531 -52.179688 58.4375 -49.125 56.25 -46.65625 C 54.0625 -44.195312 50.84375 -42.285156 46.59375 -40.921875 C 53.582031 -40.472656 59.097656 -38.878906 63.140625 -36.140625 C 67.191406 -33.410156 69.410156 -29.410156 69.796875 -24.140625 C 70.273438 -17.609375 67.769531 -12.582031 62.28125 -9.0625 C 56.800781 -5.539062 49.035156 -3.410156 38.984375 -2.671875 L 4.25 -0.125 L 5.078125 -1.609375 C 5.867188 -2.921875 6.453125 -4.460938 6.828125 -6.234375 C 7.210938 -8.003906 7.347656 -9.671875 7.234375 -11.234375 L 4.03125 -56.046875 C 2.644531 -56.828125 1.519531 -57.941406 0.65625 -59.390625 C -0.207031 -60.835938 -0.710938 -62.570312 -0.859375 -64.59375 C -0.960938 -66.039062 -0.785156 -67.285156 -0.328125 -68.328125 C 0.128906 -69.367188 0.660156 -70.097656 1.265625 -70.515625 Z M 27.484375 -65.25 C 27.253906 -65.039062 27.0625 -64.722656 26.90625 -64.296875 C 26.75 -63.867188 26.675781 -63.109375 26.6875 -62.015625 C 26.707031 -60.921875 26.800781 -59.242188 26.96875 -56.984375 L 28.09375 -41.734375 L 29.109375 -41.796875 C 32.640625 -42.054688 35.273438 -43.148438 37.015625 -45.078125 C 38.765625 -47.003906 39.484375 -50.101562 39.171875 -54.375 C 38.867188 -58.582031 37.710938 -61.507812 35.703125 -63.15625 C 33.691406 -64.800781 30.953125 -65.5 27.484375 -65.25 Z M 30.578125 -9.15625 C 30.597656 -8.78125 30.632812 -8.445312 30.6875 -8.15625 C 30.738281 -7.875 30.804688 -7.613281 30.890625 -7.375 L 33.703125 -7.578125 C 38.035156 -7.898438 41.296875 -9.289062 43.484375 -11.75 C 45.671875 -14.21875 46.5625 -18.1875 46.15625 -23.65625 C 45.757812 -29.050781 44.3125 -32.664062 41.8125 -34.5 C 39.3125 -36.332031 35.894531 -37.085938 31.5625 -36.765625 L 28.46875 -36.546875 Z M 30.578125 -9.15625 "/></g></g></g><g fill="#ffffff" fill-opacity="1"><g transform="translate(504.117941, 267.649541)"><g><path d="M 12.234375 -12.8125 C 12.003906 -11.300781 12.101562 -9.703125 12.53125 -8.015625 C 12.96875 -6.335938 13.660156 -4.847656 14.609375 -3.546875 L 15.265625 -2.625 L 0.03125 0.1875 L 1.109375 -1.734375 C 1.890625 -3.097656 2.582031 -4.664062 3.1875 -6.4375 C 3.789062 -8.21875 4.207031 -9.863281 4.4375 -11.375 L 11.703125 -62.625 C 10.054688 -63.863281 8.601562 -65.488281 7.34375 -67.5 C 6.582031 -68.832031 6.21875 -70.007812 6.25 -71.03125 C 6.289062 -72.0625 6.492188 -72.804688 6.859375 -73.265625 C 8.816406 -72.015625 11.171875 -71.3125 13.921875 -71.15625 C 16.671875 -71 19.492188 -71.117188 22.390625 -71.515625 C 25.296875 -71.910156 28.007812 -72.453125 30.53125 -73.140625 C 33.0625 -73.835938 35.082031 -74.425781 36.59375 -74.90625 L 36.59375 -72.875 C 36.582031 -71.53125 36.8125 -70.003906 37.28125 -68.296875 C 37.757812 -66.597656 38.390625 -65.019531 39.171875 -63.5625 L 62.03125 -22.28125 C 62.8125 -20.820312 63.914062 -19.34375 65.34375 -17.84375 C 66.78125 -16.34375 68.265625 -15.097656 69.796875 -14.109375 L 71.515625 -12.984375 L 41.34375 -7.421875 L 41.46875 -8.890625 C 41.601562 -10.191406 41.484375 -11.6875 41.109375 -13.375 C 40.742188 -15.070312 40.164062 -16.648438 39.375 -18.109375 L 35.8125 -24.453125 L 13.234375 -20.296875 Z M 18.390625 -56.5625 L 14.078125 -26.203125 L 33.03125 -29.6875 Z M 18.390625 -56.5625 "/></g></g></g><g fill="#ffffff" fill-opacity="1"><g transform="translate(597.529757, 249.160301)"><g><path d="M 42.28125 -23.71875 C 42.789062 -22.226562 43.535156 -20.722656 44.515625 -19.203125 C 45.492188 -17.691406 46.550781 -16.453125 47.6875 -15.484375 L 49 -14.375 L 19.59375 -5.625 L 20.078125 -7.265625 C 20.578125 -8.710938 20.820312 -10.335938 20.8125 -12.140625 C 20.800781 -13.953125 20.570312 -15.613281 20.125 -17.125 C 19.976562 -17.800781 19.75 -18.71875 19.4375 -19.875 C 19.132812 -21.03125 18.789062 -22.191406 18.40625 -23.359375 C 18.03125 -24.523438 17.71875 -25.429688 17.46875 -26.078125 C 15.539062 -28.785156 13.195312 -31.796875 10.4375 -35.109375 C 7.6875 -38.429688 4.769531 -41.785156 1.6875 -45.171875 C -1.394531 -48.554688 -4.34375 -51.671875 -7.15625 -54.515625 C -9.09375 -54.191406 -10.753906 -54.429688 -12.140625 -55.234375 C -13.535156 -56.035156 -14.632812 -57.117188 -15.4375 -58.484375 C -16.238281 -59.859375 -16.707031 -61.28125 -16.84375 -62.75 C -16.988281 -64.226562 -16.8125 -65.429688 -16.3125 -66.359375 C -14.15625 -65.546875 -12.054688 -65.179688 -10.015625 -65.265625 C -7.972656 -65.359375 -5.984375 -65.691406 -4.046875 -66.265625 C -1.515625 -67.015625 0.820312 -67.96875 2.96875 -69.125 C 5.113281 -70.289062 6.96875 -71.242188 8.53125 -71.984375 C 9.457031 -69.765625 10.832031 -67.285156 12.65625 -64.546875 C 14.488281 -61.804688 16.492188 -59.082031 18.671875 -56.375 C 20.859375 -53.675781 23.003906 -51.210938 25.109375 -48.984375 C 27.222656 -46.753906 29.019531 -45.039062 30.5 -43.84375 C 30.863281 -43.5 31.253906 -43.390625 31.671875 -43.515625 C 32.460938 -43.742188 33.125 -44.773438 33.65625 -46.609375 C 34.195312 -48.441406 34.609375 -50.644531 34.890625 -53.21875 C 35.171875 -55.800781 35.3125 -58.40625 35.3125 -61.03125 C 35.320312 -63.65625 35.175781 -65.925781 34.875 -67.84375 C 34.570312 -69.757812 34.101562 -70.882812 33.46875 -71.21875 C 31.8125 -71.050781 30.25 -71.289062 28.78125 -71.9375 C 27.3125 -72.582031 26.222656 -73.53125 25.515625 -74.78125 C 24.660156 -76.550781 24.785156 -77.894531 25.890625 -78.8125 C 26.546875 -78.351562 27.757812 -78.242188 29.53125 -78.484375 C 31.3125 -78.722656 33.226562 -79.144531 35.28125 -79.75 C 37.082031 -80.289062 38.828125 -80.875 40.515625 -81.5 C 42.203125 -82.132812 43.644531 -82.695312 44.84375 -83.1875 C 46.050781 -83.675781 46.773438 -83.957031 47.015625 -84.03125 C 45.429688 -82.039062 44.296875 -79.484375 43.609375 -76.359375 C 42.929688 -73.234375 42.476562 -69.734375 42.25 -65.859375 C 42.03125 -61.984375 41.789062 -57.941406 41.53125 -53.734375 C 41.382812 -51.378906 41.078125 -48.867188 40.609375 -46.203125 C 40.148438 -43.546875 39.8125 -40.875 39.59375 -38.1875 C 39.382812 -35.5 39.519531 -32.910156 40 -30.421875 C 40.207031 -29.492188 40.53125 -28.457031 40.96875 -27.3125 C 41.414062 -26.164062 41.851562 -24.96875 42.28125 -23.71875 Z M 42.28125 -23.71875 "/></g></g></g><g fill="#ffffff" fill-opacity="1"><g transform="translate(686.612015, 221.572415)"><g><path d="M 58.296875 -45.421875 C 59.910156 -41.597656 60.101562 -37.734375 58.875 -33.828125 C 57.65625 -29.929688 55.191406 -26.257812 51.484375 -22.8125 C 47.785156 -19.363281 42.953125 -16.382812 36.984375 -13.875 C 31.117188 -11.394531 25.644531 -10.023438 20.5625 -9.765625 C 15.488281 -9.503906 11.125 -10.289062 7.46875 -12.125 C 3.820312 -13.96875 1.191406 -16.800781 -0.421875 -20.625 C -2.828125 -26.3125 -5.171875 -31.898438 -7.453125 -37.390625 C -9.734375 -42.890625 -12.082031 -48.507812 -14.5 -54.25 C -16.050781 -54.539062 -17.484375 -55.226562 -18.796875 -56.3125 C -20.109375 -57.394531 -21.15625 -58.867188 -21.9375 -60.734375 C -22.5 -62.066406 -22.71875 -63.304688 -22.59375 -64.453125 C -22.46875 -65.597656 -22.179688 -66.46875 -21.734375 -67.0625 C -19.753906 -65.914062 -17.222656 -65.648438 -14.140625 -66.265625 C -11.054688 -66.890625 -8.003906 -67.835938 -4.984375 -69.109375 C -2.773438 -70.035156 -0.753906 -70.988281 1.078125 -71.96875 C 2.910156 -72.945312 4.425781 -73.800781 5.625 -74.53125 L 5.453125 -72.296875 C 5.265625 -70.785156 5.296875 -69.125 5.546875 -67.3125 C 5.804688 -65.507812 6.242188 -63.882812 6.859375 -62.4375 L 20.6875 -29.65625 C 22.695312 -24.894531 24.789062 -21.625 26.96875 -19.84375 C 29.15625 -18.070312 31.757812 -17.828125 34.78125 -19.109375 C 37.851562 -20.398438 39.5 -22.4375 39.71875 -25.21875 C 39.9375 -28.007812 39.039062 -31.785156 37.03125 -36.546875 L 22.90625 -70.03125 C 21.34375 -70.320312 19.921875 -71.015625 18.640625 -72.109375 C 17.359375 -73.210938 16.328125 -74.695312 15.546875 -76.5625 C 14.984375 -77.894531 14.75 -79.125 14.84375 -80.25 C 14.945312 -81.382812 15.21875 -82.25 15.65625 -82.84375 C 17.632812 -81.707031 20.164062 -81.445312 23.25 -82.0625 C 26.34375 -82.675781 29.394531 -83.617188 32.40625 -84.890625 C 34.613281 -85.828125 36.648438 -86.789062 38.515625 -87.78125 C 40.378906 -88.769531 41.910156 -89.628906 43.109375 -90.359375 L 42.84375 -88.09375 C 42.65625 -86.570312 42.703125 -84.910156 42.984375 -83.109375 C 43.273438 -81.316406 43.726562 -79.695312 44.34375 -78.25 C 46.71875 -72.625 49.039062 -67.148438 51.3125 -61.828125 C 53.59375 -56.515625 55.921875 -51.046875 58.296875 -45.421875 Z M 58.296875 -45.421875 "/></g></g></g><g fill="#ffffff" fill-opacity="1"><g transform="translate(99.113049, 90.499995)"><g><path d="M 48.515625 0 L 39.265625 -32.40625 L 30.03125 0 L 15.40625 0 L -1.046875 -57.75 L 13.578125 -57.75 L 23.453125 -18.125 L 23.796875 -18.125 L 34.296875 -57.75 L 44.234375 -57.75 L 54.734375 -18.125 L 55.09375 -18.125 L 64.953125 -57.75 L 79.515625 -57.75 L 63.0625 0 Z M 48.515625 0 "/></g></g></g><g fill="#ffffff" fill-opacity="1"><g transform="translate(177.57876, 90.499995)"><g><path d="M 33.53125 -57.75 L 56.84375 0 L 42.703125 0 L 38.4375 -11.546875 L 16.453125 -11.546875 L 12.1875 0 L -1.953125 0 L 21.34375 -57.75 Z M 33.953125 -23.09375 L 27.515625 -39.90625 L 27.375 -39.90625 L 20.9375 -23.09375 Z M 33.953125 -23.09375 "/></g></g></g><g fill="#ffffff" fill-opacity="1"><g transform="translate(232.455762, 90.499995)"><g><path d="M 4.203125 -57.75 L 24.84375 -57.75 C 30.40625 -57.75 34.9375 -56.265625 38.4375 -53.296875 C 41.9375 -50.335938 43.6875 -46.101562 43.6875 -40.59375 C 43.6875 -36.351562 42.625 -32.796875 40.5 -29.921875 C 38.375 -27.054688 35.488281 -25.039062 31.84375 -23.875 L 51.734375 0 L 35 0 L 17.359375 -22.8125 L 17.359375 0 L 4.203125 0 Z M 17.359375 -32.125 L 18.90625 -32.125 C 20.113281 -32.125 21.132812 -32.144531 21.96875 -32.1875 C 22.8125 -32.238281 23.769531 -32.40625 24.84375 -32.6875 C 25.914062 -32.96875 26.78125 -33.363281 27.4375 -33.875 C 28.09375 -34.394531 28.648438 -35.144531 29.109375 -36.125 C 29.578125 -37.101562 29.8125 -38.289062 29.8125 -39.6875 C 29.8125 -41.09375 29.578125 -42.285156 29.109375 -43.265625 C 28.648438 -44.242188 28.09375 -44.988281 27.4375 -45.5 C 26.78125 -46.007812 25.914062 -46.40625 24.84375 -46.6875 C 23.769531 -46.96875 22.8125 -47.128906 21.96875 -47.171875 C 21.132812 -47.222656 20.113281 -47.25 18.90625 -47.25 L 17.359375 -47.25 Z M 17.359375 -32.125 "/></g></g></g><g fill="#ffffff" fill-opacity="1"><g transform="translate(282.573018, 90.499995)"><g><path d="M 48.578125 -57.75 L 48.578125 -20.515625 C 48.578125 -13.421875 46.660156 -8.050781 42.828125 -4.40625 C 39.003906 -0.769531 33.40625 1.046875 26.03125 1.046875 C 18.664062 1.046875 13.066406 -0.769531 9.234375 -4.40625 C 5.410156 -8.050781 3.5 -13.421875 3.5 -20.515625 L 3.5 -57.75 L 16.65625 -57.75 L 16.65625 -24.359375 C 16.65625 -19.691406 17.390625 -16.445312 18.859375 -14.625 C 20.328125 -12.8125 22.71875 -11.90625 26.03125 -11.90625 C 29.351562 -11.90625 31.75 -12.8125 33.21875 -14.625 C 34.6875 -16.445312 35.421875 -19.691406 35.421875 -24.359375 L 35.421875 -57.75 Z M 48.578125 -57.75 "/></g></g></g><g fill="#ffffff" fill-opacity="1"><g transform="translate(334.650154, 90.499995)"><g><path d="M 17.359375 -35.84375 L 17.359375 0 L 4.203125 0 L 4.203125 -57.75 L 17.359375 -57.75 L 40.3125 -21.90625 L 40.453125 -21.90625 L 40.453125 -57.75 L 53.625 -57.75 L 53.625 0 L 40.453125 0 L 17.5 -35.84375 Z M 17.359375 -35.84375 "/></g></g></g><g fill="#ffffff" fill-opacity="1"><g transform="translate(392.466983, 90.499995)"><g><path d="M 56.421875 -32.34375 L 56.421875 -19.8125 C 54.929688 -12.945312 51.664062 -7.753906 46.625 -4.234375 C 41.582031 -0.710938 35.957031 1.046875 29.75 1.046875 C 21.957031 1.046875 15.316406 -1.867188 9.828125 -7.703125 C 4.347656 -13.535156 1.609375 -20.582031 1.609375 -28.84375 C 1.609375 -37.238281 4.289062 -44.328125 9.65625 -50.109375 C 15.019531 -55.898438 21.71875 -58.796875 29.75 -58.796875 C 39.125 -58.796875 46.546875 -55.507812 52.015625 -48.9375 L 43.40625 -39.484375 C 40.320312 -44.429688 36.023438 -46.90625 30.515625 -46.90625 C 26.460938 -46.90625 23 -45.140625 20.125 -41.609375 C 17.25 -38.085938 15.8125 -33.832031 15.8125 -28.84375 C 15.8125 -23.9375 17.25 -19.742188 20.125 -16.265625 C 23 -12.796875 26.460938 -11.0625 30.515625 -11.0625 C 33.878906 -11.0625 36.804688 -12.078125 39.296875 -14.109375 C 41.796875 -16.140625 43.046875 -18.832031 43.046875 -22.1875 L 29.75 -22.1875 L 29.75 -32.34375 Z M 56.421875 -32.34375 "/></g></g></g><g fill="#ffffff" fill-opacity="1"><g transform="translate(450.493811, 90.499995)"><g/></g></g><g fill="#ffffff" fill-opacity="1"><g transform="translate(469.602764, 90.499995)"><g><path d="M 17.359375 -35.84375 L 17.359375 0 L 4.203125 0 L 4.203125 -57.75 L 17.359375 -57.75 L 40.3125 -21.90625 L 40.453125 -21.90625 L 40.453125 -57.75 L 53.625 -57.75 L 53.625 0 L 40.453125 0 L 17.5 -35.84375 Z M 17.359375 -35.84375 "/></g></g></g><g fill="#ffffff" fill-opacity="1"><g transform="translate(527.419593, 90.499995)"><g><path d="M 33.53125 -57.75 L 56.84375 0 L 42.703125 0 L 38.4375 -11.546875 L 16.453125 -11.546875 L 12.1875 0 L -1.953125 0 L 21.34375 -57.75 Z M 33.953125 -23.09375 L 27.515625 -39.90625 L 27.375 -39.90625 L 20.9375 -23.09375 Z M 33.953125 -23.09375 "/></g></g></g><g fill="#ffffff" fill-opacity="1"><g transform="translate(582.296572, 90.499995)"><g><path d="M 25.484375 -58.796875 C 28.609375 -58.796875 31.660156 -58.335938 34.640625 -57.421875 C 37.628906 -56.515625 39.847656 -55.617188 41.296875 -54.734375 L 43.40625 -53.34375 L 38.078125 -42.84375 C 37.660156 -43.125 37.078125 -43.484375 36.328125 -43.921875 C 35.578125 -44.367188 34.175781 -44.960938 32.125 -45.703125 C 30.070312 -46.453125 28.160156 -46.828125 26.390625 -46.828125 C 24.191406 -46.828125 22.5 -46.359375 21.3125 -45.421875 C 20.125 -44.492188 19.53125 -43.238281 19.53125 -41.65625 C 19.53125 -40.851562 19.804688 -40.113281 20.359375 -39.4375 C 20.921875 -38.769531 21.878906 -38.050781 23.234375 -37.28125 C 24.585938 -36.507812 25.773438 -35.890625 26.796875 -35.421875 C 27.828125 -34.953125 29.414062 -34.25 31.5625 -33.3125 C 35.300781 -31.726562 38.488281 -29.570312 41.125 -26.84375 C 43.757812 -24.113281 45.078125 -21.019531 45.078125 -17.5625 C 45.078125 -14.25 44.484375 -11.359375 43.296875 -8.890625 C 42.109375 -6.421875 40.472656 -4.484375 38.390625 -3.078125 C 36.316406 -1.679688 34.019531 -0.644531 31.5 0.03125 C 28.976562 0.707031 26.25 1.046875 23.3125 1.046875 C 20.789062 1.046875 18.316406 0.789062 15.890625 0.28125 C 13.460938 -0.226562 11.429688 -0.867188 9.796875 -1.640625 C 8.160156 -2.410156 6.691406 -3.171875 5.390625 -3.921875 C 4.085938 -4.671875 3.128906 -5.300781 2.515625 -5.8125 L 1.609375 -6.578125 L 8.1875 -17.640625 C 8.75 -17.171875 9.519531 -16.570312 10.5 -15.84375 C 11.476562 -15.125 13.210938 -14.15625 15.703125 -12.9375 C 18.203125 -11.726562 20.410156 -11.125 22.328125 -11.125 C 27.878906 -11.125 30.65625 -13.015625 30.65625 -16.796875 C 30.65625 -17.585938 30.457031 -18.320312 30.0625 -19 C 29.664062 -19.675781 28.960938 -20.351562 27.953125 -21.03125 C 26.953125 -21.707031 26.066406 -22.242188 25.296875 -22.640625 C 24.535156 -23.035156 23.28125 -23.640625 21.53125 -24.453125 C 19.78125 -25.273438 18.484375 -25.894531 17.640625 -26.3125 C 14.140625 -28.039062 11.429688 -30.203125 9.515625 -32.796875 C 7.609375 -35.390625 6.65625 -38.175781 6.65625 -41.15625 C 6.65625 -46.34375 8.566406 -50.578125 12.390625 -53.859375 C 16.210938 -57.148438 20.578125 -58.796875 25.484375 -58.796875 Z M 25.484375 -58.796875 "/></g></g></g><g fill="#ffffff" fill-opacity="1"><g transform="translate(629.333983, 90.499995)"><g><path d="M 17.359375 -57.75 L 17.359375 0 L 4.203125 0 L 4.203125 -57.75 Z M 17.359375 -57.75 "/></g></g></g><g clip-path="url(#6cd67322d4)"><path fill="#38b6ff" d="M 396.527344 248.460938 C 380.378906 251.433594 377.96875 253.84375 374.996094 269.992188 C 372.023438 253.84375 369.613281 251.433594 353.464844 248.460938 C 369.613281 245.488281 372.023438 243.078125 374.996094 226.929688 C 377.96875 243.078125 380.378906 245.488281 396.527344 248.460938 Z M 396.527344 248.460938 " fill-opacity="1" fill-rule="nonzero"/></g></svg>