<svg xmlns="http://www.w3.org/2000/svg" xmlns:xlink="http://www.w3.org/1999/xlink" width="500" zoomAndPan="magnify" viewBox="0 0 375 374.999991" height="500" preserveAspectRatio="xMidYMid meet" version="1.0"><defs><clipPath id="32b3289f79"><path d="M 187.5 0 C 83.945312 0 0 83.945312 0 187.5 C 0 291.054688 83.945312 375 187.5 375 C 291.054688 375 375 291.054688 375 187.5 C 375 83.945312 291.054688 0 187.5 0 Z M 187.5 0 " clip-rule="nonzero"/></clipPath><clipPath id="7242ee0eed"><path d="M 24 177 L 367 177 L 367 354.171875 L 24 354.171875 Z M 24 177 " clip-rule="nonzero"/></clipPath><clipPath id="03418e4851"><path d="M 10.148438 20.582031 L 351 20.582031 L 351 193 L 10.148438 193 Z M 10.148438 20.582031 " clip-rule="nonzero"/></clipPath><clipPath id="0b37a5dd77"><path d="M 105.273438 74.296875 L 303 74.296875 L 303 306 L 105.273438 306 Z M 105.273438 74.296875 " clip-rule="nonzero"/></clipPath></defs><g clip-path="url(#32b3289f79)"><rect x="-37.5" width="450" fill="#000000" y="-37.499999" height="449.999989" fill-opacity="1"/></g><g clip-path="url(#7242ee0eed)"><path fill="#f8f7f2" d="M 344.851562 244.941406 C 351.132812 227.753906 354.585938 209.46875 354.9375 190.675781 C 354.945312 190.183594 354.902344 189.699219 354.832031 189.230469 L 355.226562 187.453125 C 355.226562 187.453125 374.824219 218.390625 344.851562 244.941406 Z M 347.960938 178.304688 C 334.0625 175.199219 319.070312 189.359375 314.476562 209.933594 C 311.144531 224.851562 314.195312 239.035156 321.417969 246.894531 C 321.429688 246.90625 321.4375 246.917969 321.449219 246.929688 C 323.046875 248.6875 323.332031 251.28125 322.273438 253.410156 C 297.707031 302.910156 246.488281 337.195312 188.042969 337.195312 C 117.421875 337.195312 55.785156 287.089844 41.480469 218.050781 C 40.515625 213.386719 35.953125 210.390625 31.289062 211.355469 C 26.625 212.320312 23.625 216.882812 24.59375 221.550781 C 32.261719 258.574219 52.65625 292.277344 82.011719 316.449219 C 96.632812 328.484375 113.03125 337.875 130.742188 344.34375 C 149.074219 351.046875 168.351562 354.441406 188.042969 354.441406 C 232.078125 354.441406 273.628906 337.445312 305.035156 306.585938 C 320.957031 290.933594 333.355469 272.613281 341.824219 252.621094 C 341.996094 252.207031 342.316406 251.867188 342.730469 251.699219 C 342.734375 251.699219 342.734375 251.699219 342.738281 251.695312 C 352.644531 247.679688 361.46875 236.121094 364.808594 221.175781 C 369.402344 200.601562 361.859375 181.40625 347.960938 178.304688 " fill-opacity="1" fill-rule="nonzero"/></g><g clip-path="url(#03418e4851)"><path fill="#f8f7f2" d="M 350.6875 149.824219 C 342.339844 113.664062 321.734375 80.859375 292.667969 57.449219 C 278.15625 45.757812 261.941406 36.652344 244.472656 30.378906 C 226.398438 23.890625 207.414062 20.597656 188.042969 20.597656 C 144.074219 20.597656 102.574219 37.546875 71.1875 68.324219 C 64.710938 74.667969 58.824219 81.464844 53.542969 88.621094 L 52.988281 89.382812 C 52.851562 89.570312 52.714844 89.757812 52.578125 89.945312 L 41.066406 105.738281 C 38.589844 109.144531 35.316406 111.914062 31.492188 113.667969 C 31.460938 113.683594 31.429688 113.695312 31.398438 113.714844 C 23.769531 117.183594 22.519531 130.117188 20.898438 137.046875 C 18.925781 145.480469 16.953125 153.90625 14.984375 162.339844 C 13.457031 168.867188 11.933594 175.390625 10.40625 181.914062 C 10.339844 182.199219 10.511719 182.488281 10.792969 182.5625 L 14.203125 183.472656 C 14.488281 183.550781 14.78125 183.386719 14.863281 183.101562 L 28.726562 136.207031 C 28.96875 135.394531 29.71875 134.902344 30.429688 135.089844 C 31.140625 135.28125 31.546875 136.085938 31.351562 136.90625 L 19.96875 184.46875 C 19.90625 184.753906 20.074219 185.042969 20.359375 185.117188 L 21.914062 185.535156 C 22.199219 185.609375 22.492188 185.445312 22.574219 185.164062 L 36.433594 138.265625 C 36.675781 137.453125 37.429688 136.960938 38.140625 137.152344 C 38.847656 137.34375 39.257812 138.144531 39.0625 138.964844 L 27.683594 186.527344 C 27.613281 186.8125 27.785156 187.101562 28.070312 187.175781 C 28.070312 187.175781 28.75 187.359375 28.75 187.359375 L 29.625 187.59375 C 29.90625 187.671875 30.199219 187.507812 30.285156 187.222656 L 44.148438 140.324219 C 44.386719 139.515625 45.140625 139.023438 45.851562 139.210938 C 46.5625 139.402344 46.96875 140.203125 46.773438 141.027344 L 35.390625 188.589844 C 35.324219 188.871094 35.496094 189.164062 35.777344 189.238281 L 37.332031 189.652344 C 37.617188 189.730469 37.910156 189.566406 37.992188 189.285156 L 51.855469 142.386719 C 52.09375 141.574219 52.851562 141.082031 53.558594 141.273438 C 54.269531 141.460938 54.679688 142.265625 54.480469 143.085938 L 43.101562 190.648438 C 43.03125 190.933594 43.203125 191.222656 43.488281 191.296875 L 46.699219 192.15625 C 46.984375 192.230469 47.277344 192.070312 47.359375 191.789062 C 49.292969 185.375 51.226562 178.957031 53.15625 172.542969 C 55.652344 164.25 58.152344 155.960938 60.648438 147.671875 C 62.785156 140.574219 65.875 133.1875 64.308594 125.6875 C 63.878906 123.632812 62.976562 121.734375 62.191406 119.800781 C 62.191406 119.796875 62.171875 119.746094 62.136719 119.648438 C 60.589844 115.398438 60.777344 110.699219 62.695312 106.601562 C 62.976562 106.007812 63.289062 105.386719 63.648438 104.746094 C 90.640625 64.515625 136.558594 37.84375 188.042969 37.84375 C 258.164062 37.84375 318.132812 85.488281 333.882812 153.707031 C 334.953125 158.347656 339.585938 161.238281 344.226562 160.164062 C 348.867188 159.097656 351.761719 154.464844 350.6875 149.824219 " fill-opacity="1" fill-rule="nonzero"/></g><g clip-path="url(#0b37a5dd77)"><path fill="#0097b2" d="M 273.644531 174.082031 C 272.804688 173.425781 271.792969 173.019531 271.386719 172.789062 C 271.742188 171.496094 271.742188 171.292969 271.871094 171.164062 C 272.808594 170.074219 273.824219 169.011719 274.761719 167.917969 C 289.519531 151.207031 293.753906 132.011719 286.097656 111.21875 C 278.359375 90.253906 262.816406 77.09375 240.273438 75.570312 C 223.03125 74.40625 205.6875 74.734375 158.980469 74.863281 L 158.980469 91.292969 L 158.828125 91.292969 C 158.851562 93.496094 158.902344 95.679688 158.980469 97.835938 L 158.980469 98.542969 C 159.488281 117.839844 160.5 134.375 162.429688 149.4375 C 164.355469 164.472656 167.195312 178.066406 171.328125 191.503906 C 180.507812 221.375 195.191406 247.898438 219.023438 268.71875 C 220.773438 270.238281 222.679688 272.34375 224.730469 272.671875 C 235.378906 274.273438 245.117188 271.863281 254.019531 265.042969 C 253.003906 264.230469 252.496094 263.695312 251.890625 263.339844 C 225.667969 248.226562 209.132812 225.152344 198.433594 197.488281 C 196.761719 193.148438 195.289062 188.789062 193.945312 184.378906 L 243.34375 184.378906 C 243.367188 184.402344 243.394531 184.429688 243.417969 184.453125 C 248.691406 185.164062 256.503906 187.773438 263.097656 196.195312 L 263.171875 196.273438 C 279.730469 212.171875 283.6875 238.289062 271.082031 258.777344 C 256.402344 282.714844 224.859375 289.003906 200.488281 272.671875 C 190.246094 265.800781 182.207031 256.722656 175.261719 246.609375 C 160.402344 224.925781 151.121094 200.789062 143.945312 175.734375 C 135.269531 145.378906 130.324219 114.394531 129.183594 74.707031 L 105.375 74.707031 C 105.347656 130.796875 105.347656 178.75 105.347656 226.671875 C 105.347656 250.710938 105.453125 274.722656 105.273438 298.761719 L 129.007812 298.761719 C 128.777344 271.402344 128.878906 244.066406 128.878906 216.707031 C 128.878906 214.628906 129.058594 212.574219 129.132812 210.496094 C 131.109375 212.21875 131.84375 214.171875 132.785156 216.023438 C 139.453125 229.285156 145.511719 242.925781 153.015625 255.707031 C 161.917969 270.847656 173.808594 283.625 188.820312 293.160156 C 222.773438 314.789062 265.90625 306.902344 288.550781 274.925781 C 311.375 242.777344 304.910156 198.933594 273.644531 174.082031 Z M 260.355469 148.574219 C 260.304688 148.675781 260.226562 148.773438 260.175781 148.851562 C 254.621094 157.902344 247.777344 160.234375 244.101562 160.742188 C 244.074219 160.769531 244.074219 160.769531 244.050781 160.792969 L 188.039062 160.792969 C 185.402344 147.175781 183.90625 133.308594 183.21875 119.285156 C 183.015625 115.101562 183.039062 110.867188 183.015625 98.519531 C 210.785156 98.492188 223.488281 98.441406 236.164062 98.621094 C 250.441406 98.824219 262.179688 109.121094 265.273438 123.496094 C 267.152344 132.195312 265.25 141.550781 260.355469 148.574219 Z M 260.355469 148.574219 " fill-opacity="1" fill-rule="nonzero"/></g></svg>