<svg xmlns="http://www.w3.org/2000/svg" xmlns:xlink="http://www.w3.org/1999/xlink" width="1300" zoomAndPan="magnify" viewBox="0 0 974.88 187.499995" height="250" preserveAspectRatio="xMidYMid meet" version="1.0"><defs><g/><clipPath id="9b6b7ba1f5"><path d="M 240 0 L 335 0 L 335 187 L 240 187 Z M 240 0 " clip-rule="nonzero"/></clipPath><clipPath id="d6ca7f7d88"><path d="M 72 88 L 259 88 L 259 184.316406 L 72 184.316406 Z M 72 88 " clip-rule="nonzero"/></clipPath><clipPath id="b1228553f9"><path d="M 64.347656 2.550781 L 251 2.550781 L 251 97 L 64.347656 97 Z M 64.347656 2.550781 " clip-rule="nonzero"/></clipPath><clipPath id="e1dd517112"><path d="M 116.175781 32 L 224 32 L 224 158 L 116.175781 158 Z M 116.175781 32 " clip-rule="nonzero"/></clipPath></defs><g clip-path="url(#9b6b7ba1f5)"><path stroke-linecap="round" transform="matrix(0.00449785, -0.747992, 0.747992, 0.00449785, 282.451824, 168.249892)" fill="none" stroke-linejoin="miter" d="M 5.500689 5.499096 L 204.92532 5.501043 " stroke="#000000" stroke-width="11" stroke-opacity="1" stroke-miterlimit="4"/></g><g clip-path="url(#d6ca7f7d88)"><path fill="#000000" d="M 246.714844 124.800781 C 250.140625 115.433594 252.019531 105.472656 252.210938 95.230469 C 252.214844 94.960938 252.195312 94.699219 252.15625 94.441406 L 252.371094 93.476562 C 252.371094 93.476562 263.050781 110.332031 246.714844 124.800781 Z M 248.410156 88.488281 C 240.839844 86.796875 232.667969 94.515625 230.167969 105.722656 C 228.351562 113.851562 230.011719 121.582031 233.949219 125.863281 C 233.953125 125.871094 233.960938 125.875 233.964844 125.882812 C 234.835938 126.839844 234.992188 128.253906 234.414062 129.414062 C 221.03125 156.382812 193.121094 175.066406 161.277344 175.066406 C 122.796875 175.066406 89.210938 147.761719 81.417969 110.148438 C 80.890625 107.605469 78.40625 105.972656 75.863281 106.5 C 73.324219 107.023438 71.691406 109.511719 72.21875 112.054688 C 76.398438 132.226562 87.507812 150.589844 103.503906 163.761719 C 111.46875 170.320312 120.402344 175.433594 130.054688 178.960938 C 140.042969 182.613281 150.546875 184.460938 161.277344 184.460938 C 185.269531 184.460938 207.910156 175.203125 225.019531 158.386719 C 233.699219 149.859375 240.453125 139.875 245.066406 128.980469 C 245.160156 128.757812 245.335938 128.574219 245.5625 128.480469 C 245.5625 128.480469 245.5625 128.480469 245.566406 128.480469 C 250.960938 126.289062 255.769531 119.992188 257.589844 111.847656 C 260.09375 100.640625 255.984375 90.179688 248.410156 88.488281 " fill-opacity="1" fill-rule="nonzero"/></g><g clip-path="url(#b1228553f9)"><path fill="#000000" d="M 249.898438 72.972656 C 245.347656 53.269531 234.121094 35.394531 218.285156 22.640625 C 210.375 16.269531 201.542969 11.308594 192.023438 7.890625 C 182.175781 4.355469 171.832031 2.558594 161.277344 2.558594 C 137.320312 2.558594 114.707031 11.796875 97.605469 28.5625 C 94.078125 32.023438 90.871094 35.726562 87.992188 39.625 L 87.6875 40.039062 C 87.613281 40.140625 87.539062 40.242188 87.464844 40.347656 L 81.195312 48.953125 C 79.84375 50.808594 78.0625 52.316406 75.976562 53.273438 C 75.960938 53.28125 75.941406 53.289062 75.925781 53.296875 C 71.769531 55.1875 71.085938 62.234375 70.203125 66.011719 C 69.128906 70.605469 68.054688 75.199219 66.980469 79.792969 C 66.148438 83.347656 65.320312 86.902344 64.488281 90.457031 C 64.453125 90.613281 64.542969 90.769531 64.699219 90.808594 L 66.558594 91.308594 C 66.710938 91.347656 66.871094 91.257812 66.917969 91.105469 L 74.46875 65.550781 C 74.601562 65.109375 75.011719 64.839844 75.398438 64.945312 C 75.785156 65.046875 76.007812 65.484375 75.898438 65.933594 L 69.699219 91.847656 C 69.664062 92.003906 69.753906 92.160156 69.910156 92.203125 L 70.757812 92.429688 C 70.914062 92.472656 71.070312 92.382812 71.117188 92.226562 L 78.667969 66.675781 C 78.800781 66.230469 79.210938 65.964844 79.597656 66.066406 C 79.984375 66.171875 80.207031 66.609375 80.101562 67.054688 L 73.902344 92.972656 C 73.863281 93.125 73.957031 93.28125 74.109375 93.324219 C 74.109375 93.324219 74.480469 93.421875 74.480469 93.421875 L 74.960938 93.550781 C 75.113281 93.59375 75.273438 93.503906 75.320312 93.351562 L 82.871094 67.796875 C 83 67.355469 83.414062 67.085938 83.800781 67.1875 C 84.1875 67.292969 84.410156 67.730469 84.300781 68.179688 L 78.101562 94.09375 C 78.0625 94.25 78.15625 94.40625 78.3125 94.449219 L 79.160156 94.675781 C 79.316406 94.714844 79.472656 94.625 79.519531 94.472656 L 87.070312 68.917969 C 87.203125 68.476562 87.613281 68.207031 88 68.3125 C 88.386719 68.417969 88.609375 68.855469 88.503906 69.300781 L 82.300781 95.214844 C 82.265625 95.371094 82.359375 95.527344 82.511719 95.570312 L 84.261719 96.039062 C 84.417969 96.078125 84.578125 95.992188 84.621094 95.835938 C 85.675781 92.34375 86.730469 88.847656 87.78125 85.351562 C 89.140625 80.832031 90.503906 76.316406 91.863281 71.796875 C 93.027344 67.933594 94.710938 63.910156 93.855469 59.820312 C 93.625 58.703125 93.132812 57.667969 92.703125 56.613281 C 92.703125 56.613281 92.691406 56.582031 92.671875 56.53125 C 91.832031 54.214844 91.933594 51.652344 92.980469 49.421875 C 93.132812 49.097656 93.304688 48.761719 93.496094 48.410156 C 108.207031 26.488281 133.226562 11.957031 161.277344 11.957031 C 199.484375 11.957031 232.160156 37.917969 240.742188 75.085938 C 241.324219 77.617188 243.847656 79.191406 246.378906 78.605469 C 248.902344 78.023438 250.480469 75.5 249.898438 72.972656 " fill-opacity="1" fill-rule="nonzero"/></g><g clip-path="url(#e1dd517112)"><path fill="#0097b2" d="M 207.917969 86.191406 C 207.460938 85.832031 206.910156 85.609375 206.6875 85.484375 C 206.882812 84.78125 206.882812 84.671875 206.953125 84.601562 C 207.464844 84.007812 208.015625 83.425781 208.527344 82.832031 C 216.570312 73.726562 218.875 63.265625 214.703125 51.9375 C 210.488281 40.515625 202.019531 33.34375 189.734375 32.515625 C 180.339844 31.878906 170.890625 32.058594 145.441406 32.128906 L 145.441406 41.078125 L 145.359375 41.078125 C 145.371094 42.28125 145.398438 43.472656 145.441406 44.644531 L 145.441406 45.03125 C 145.71875 55.546875 146.269531 64.554688 147.320312 72.761719 C 148.371094 80.953125 149.917969 88.359375 152.167969 95.683594 C 157.171875 111.957031 165.171875 126.410156 178.15625 137.753906 C 179.109375 138.582031 180.148438 139.730469 181.265625 139.910156 C 187.070312 140.78125 192.375 139.46875 197.222656 135.75 C 196.671875 135.308594 196.394531 135.019531 196.0625 134.824219 C 181.777344 126.589844 172.769531 114.015625 166.9375 98.941406 C 166.027344 96.578125 165.226562 94.203125 164.492188 91.800781 L 191.40625 91.800781 C 191.421875 91.8125 191.4375 91.828125 191.449219 91.839844 C 194.324219 92.226562 198.578125 93.648438 202.171875 98.238281 L 202.214844 98.28125 C 211.234375 106.945312 213.390625 121.175781 206.523438 132.335938 C 198.523438 145.378906 181.335938 148.808594 168.058594 139.910156 C 162.476562 136.164062 158.097656 131.21875 154.3125 125.707031 C 146.214844 113.894531 141.160156 100.742188 137.246094 87.089844 C 132.523438 70.550781 129.828125 53.667969 129.207031 32.042969 L 116.234375 32.042969 C 116.21875 62.605469 116.21875 88.734375 116.21875 114.84375 C 116.21875 127.941406 116.273438 141.027344 116.175781 154.125 L 129.109375 154.125 C 128.984375 139.214844 129.039062 124.324219 129.039062 109.414062 C 129.039062 108.28125 129.136719 107.164062 129.175781 106.03125 C 130.253906 106.96875 130.65625 108.03125 131.167969 109.042969 C 134.800781 116.269531 138.101562 123.699219 142.191406 130.664062 C 147.042969 138.914062 153.523438 145.878906 161.699219 151.070312 C 180.199219 162.855469 203.703125 158.558594 216.039062 141.136719 C 228.476562 123.617188 224.953125 99.730469 207.917969 86.191406 Z M 200.675781 72.289062 C 200.648438 72.347656 200.609375 72.402344 200.582031 72.441406 C 197.554688 77.375 193.824219 78.644531 191.820312 78.921875 C 191.808594 78.9375 191.808594 78.9375 191.792969 78.949219 L 161.273438 78.949219 C 159.835938 71.53125 159.023438 63.972656 158.648438 56.332031 C 158.539062 54.054688 158.550781 51.746094 158.539062 45.015625 C 173.667969 45.003906 180.589844 44.976562 187.496094 45.074219 C 195.277344 45.183594 201.671875 50.792969 203.359375 58.625 C 204.382812 63.367188 203.34375 68.464844 200.675781 72.289062 Z M 200.675781 72.289062 " fill-opacity="1" fill-rule="nonzero"/></g><g fill="#000000" fill-opacity="1"><g transform="translate(312.417207, 62.908846)"><g><path d="M 72.53125 -42.734375 C 72.625 -41.992188 72.441406 -41.375 71.984375 -40.875 C 71.523438 -40.375 70.945312 -39.847656 70.25 -39.296875 C 69.5625 -38.742188 68.875 -38.050781 68.1875 -37.21875 C 67.5 -36.394531 66.972656 -35.320312 66.609375 -34 L 57.875 -3.4375 C 57.550781 -2.34375 56.953125 -1.460938 56.078125 -0.796875 C 55.210938 -0.128906 54.226562 0.203125 53.125 0.203125 L 50.4375 0.203125 C 49.425781 0.203125 48.492188 -0.09375 47.640625 -0.6875 C 46.796875 -1.28125 46.191406 -2.0625 45.828125 -3.03125 C 45.234375 -4.59375 44.566406 -6.390625 43.828125 -8.421875 C 43.097656 -10.460938 42.34375 -12.597656 41.5625 -14.828125 C 40.78125 -17.054688 40.007812 -19.234375 39.25 -21.359375 C 38.5 -23.492188 37.78125 -25.457031 37.09375 -27.25 L 29.3125 -3.171875 C 29.039062 -2.160156 28.503906 -1.351562 27.703125 -0.75 C 26.898438 -0.15625 25.96875 0.140625 24.90625 0.140625 L 21.609375 0.140625 C 20.691406 0.0859375 19.851562 -0.207031 19.09375 -0.75 C 18.332031 -1.300781 17.796875 -2.035156 17.484375 -2.953125 C 16.796875 -4.796875 16.023438 -6.976562 15.171875 -9.5 C 14.328125 -12.019531 13.441406 -14.609375 12.515625 -17.265625 C 11.597656 -19.929688 10.75 -22.457031 9.96875 -24.84375 C 9.195312 -27.226562 8.546875 -29.222656 8.015625 -30.828125 C 7.484375 -32.429688 7.148438 -33.414062 7.015625 -33.78125 C 6.515625 -35.207031 5.875 -36.3125 5.09375 -37.09375 C 4.3125 -37.875 3.539062 -38.523438 2.78125 -39.046875 C 2.03125 -39.578125 1.445312 -40.09375 1.03125 -40.59375 C 0.613281 -41.101562 0.546875 -41.789062 0.828125 -42.65625 C 1.003906 -43.351562 1.585938 -43.882812 2.578125 -44.25 C 3.566406 -44.613281 4.710938 -44.882812 6.015625 -45.0625 C 7.328125 -45.25 8.554688 -45.351562 9.703125 -45.375 C 10.847656 -45.40625 11.675781 -45.421875 12.1875 -45.421875 C 12.320312 -45.421875 12.523438 -45.421875 12.796875 -45.421875 C 13.078125 -45.421875 13.375 -45.421875 13.6875 -45.421875 C 14.65625 -45.421875 15.828125 -45.394531 17.203125 -45.34375 C 18.578125 -45.300781 19.941406 -45.1875 21.296875 -45 C 22.648438 -44.820312 23.796875 -44.546875 24.734375 -44.171875 C 25.679688 -43.804688 26.195312 -43.300781 26.28125 -42.65625 C 26.375 -42.0625 26.238281 -41.507812 25.875 -41 C 25.507812 -40.5 25.128906 -39.953125 24.734375 -39.359375 C 24.347656 -38.765625 24.082031 -38.03125 23.9375 -37.15625 C 23.800781 -36.28125 23.960938 -35.15625 24.421875 -33.78125 L 28.484375 -20.984375 C 28.847656 -22.128906 29.304688 -23.503906 29.859375 -25.109375 C 30.410156 -26.722656 30.984375 -28.398438 31.578125 -30.140625 C 32.179688 -31.878906 32.742188 -33.550781 33.265625 -35.15625 C 33.796875 -36.769531 34.253906 -38.160156 34.640625 -39.328125 C 35.035156 -40.492188 35.300781 -41.285156 35.4375 -41.703125 C 35.800781 -42.804688 36.429688 -43.6875 37.328125 -44.34375 C 38.222656 -45.007812 39.222656 -45.367188 40.328125 -45.421875 C 40.828125 -45.421875 41.335938 -45.421875 41.859375 -45.421875 C 42.390625 -45.421875 42.890625 -45.421875 43.359375 -45.421875 C 44.410156 -45.421875 45.394531 -45.109375 46.3125 -44.484375 C 47.226562 -43.867188 47.867188 -43.03125 48.234375 -41.96875 C 48.367188 -41.65625 48.65625 -40.890625 49.09375 -39.671875 C 49.53125 -38.453125 50.054688 -37.003906 50.671875 -35.328125 C 51.296875 -33.660156 51.941406 -31.921875 52.609375 -30.109375 C 53.273438 -28.296875 53.894531 -26.609375 54.46875 -25.046875 C 55.039062 -23.484375 55.507812 -22.207031 55.875 -21.21875 C 56.238281 -20.238281 56.421875 -19.75 56.421875 -19.75 C 57.023438 -21.769531 57.613281 -23.765625 58.1875 -25.734375 C 58.757812 -27.703125 59.257812 -29.429688 59.6875 -30.921875 C 60.125 -32.421875 60.414062 -33.445312 60.5625 -34 C 60.96875 -35.375 61.007812 -36.484375 60.6875 -37.328125 C 60.375 -38.179688 59.914062 -38.878906 59.3125 -39.421875 C 58.71875 -39.972656 58.15625 -40.488281 57.625 -40.96875 C 57.101562 -41.457031 56.84375 -42.066406 56.84375 -42.796875 C 56.84375 -43.628906 57.273438 -44.226562 58.140625 -44.59375 C 59.015625 -44.957031 60.054688 -45.195312 61.265625 -45.3125 C 62.484375 -45.425781 63.53125 -45.484375 64.40625 -45.484375 C 64.914062 -45.484375 65.59375 -45.457031 66.4375 -45.40625 C 67.289062 -45.363281 68.160156 -45.25 69.046875 -45.0625 C 69.941406 -44.882812 70.722656 -44.613281 71.390625 -44.25 C 72.054688 -43.882812 72.4375 -43.378906 72.53125 -42.734375 Z M 72.53125 -42.734375 "/></g></g></g><g fill="#000000" fill-opacity="1"><g transform="translate(383.779913, 62.908846)"><g><path d="M 40.9375 -10.734375 C 40.9375 -9.398438 41.164062 -8.34375 41.625 -7.5625 C 42.082031 -6.789062 42.597656 -6.140625 43.171875 -5.609375 C 43.753906 -5.078125 44.25 -4.570312 44.65625 -4.09375 C 45.070312 -3.613281 45.253906 -3.03125 45.203125 -2.34375 C 45.160156 -1.695312 44.609375 -1.203125 43.546875 -0.859375 C 42.492188 -0.515625 41.253906 -0.257812 39.828125 -0.09375 C 38.410156 0.0625 37.070312 0.160156 35.8125 0.203125 C 34.550781 0.253906 33.671875 0.28125 33.171875 0.28125 C 30.828125 0.28125 29.101562 -0.28125 28 -1.40625 C 26.90625 -2.53125 26.195312 -3.941406 25.875 -5.640625 C 25.550781 -7.335938 25.390625 -9.035156 25.390625 -10.734375 L 25.25 -21.46875 C 24.75 -20.363281 23.984375 -19.570312 22.953125 -19.09375 C 21.921875 -18.613281 20.785156 -17.9375 19.546875 -17.0625 C 18.078125 -16.050781 17.144531 -14.914062 16.75 -13.65625 C 16.363281 -12.394531 16.285156 -11.125 16.515625 -9.84375 C 16.609375 -9.332031 16.828125 -8.734375 17.171875 -8.046875 C 17.515625 -7.359375 18.050781 -6.75 18.78125 -6.21875 C 19.519531 -5.695312 20.460938 -5.414062 21.609375 -5.375 C 22.523438 -5.320312 23.0625 -5.019531 23.21875 -4.46875 C 23.382812 -3.914062 23.210938 -3.269531 22.703125 -2.53125 C 22.203125 -1.800781 21.398438 -1.140625 20.296875 -0.546875 C 19.191406 0.046875 17.863281 0.410156 16.3125 0.546875 C 15.988281 0.597656 15.675781 0.625 15.375 0.625 C 15.082031 0.625 14.796875 0.625 14.515625 0.625 C 11.992188 0.625 9.6875 0.203125 7.59375 -0.640625 C 5.507812 -1.492188 3.867188 -2.710938 2.671875 -4.296875 C 1.484375 -5.878906 0.9375 -7.773438 1.03125 -9.984375 C 1.125 -11.992188 1.660156 -13.640625 2.640625 -14.921875 C 3.628906 -16.210938 4.925781 -17.269531 6.53125 -18.09375 C 8.144531 -18.925781 9.957031 -19.613281 11.96875 -20.15625 C 13.988281 -20.707031 16.097656 -21.257812 18.296875 -21.8125 C 21.097656 -22.5 22.875 -23.507812 23.625 -24.84375 C 24.382812 -26.175781 24.445312 -27.484375 23.8125 -28.765625 C 22.988281 -30.003906 21.796875 -30.625 20.234375 -30.625 C 19.265625 -30.625 18.484375 -30.367188 17.890625 -29.859375 C 17.296875 -29.359375 16.789062 -28.75 16.375 -28.03125 C 15.96875 -27.320312 15.53125 -26.585938 15.0625 -25.828125 C 14.601562 -25.078125 14.007812 -24.445312 13.28125 -23.9375 C 12.550781 -23.4375 11.566406 -23.140625 10.328125 -23.046875 C 10.273438 -23.046875 10.238281 -23.046875 10.21875 -23.046875 C 10.195312 -23.046875 10.140625 -23.046875 10.046875 -23.046875 C 8.898438 -23.046875 7.9375 -23.425781 7.15625 -24.1875 C 6.375 -24.945312 5.9375 -25.882812 5.84375 -27 C 5.757812 -28.125 6.128906 -29.191406 6.953125 -30.203125 C 8.003906 -31.492188 9.445312 -32.445312 11.28125 -33.0625 C 13.113281 -33.6875 15.03125 -34.097656 17.03125 -34.296875 C 19.03125 -34.503906 20.785156 -34.609375 22.296875 -34.609375 C 24.492188 -34.609375 26.613281 -34.378906 28.65625 -33.921875 C 30.695312 -33.460938 32.539062 -32.660156 34.1875 -31.515625 C 35.84375 -30.367188 37.207031 -28.785156 38.28125 -26.765625 C 39.363281 -24.742188 40.019531 -22.195312 40.25 -19.125 C 40.34375 -18.03125 40.410156 -17.179688 40.453125 -16.578125 C 40.503906 -15.984375 40.5625 -15.285156 40.625 -14.484375 C 40.695312 -13.679688 40.800781 -12.429688 40.9375 -10.734375 Z M 40.9375 -10.734375 "/></g></g></g><g fill="#000000" fill-opacity="1"><g transform="translate(432.983704, 62.908846)"><g><path d="M 42.59375 -27.65625 C 42.78125 -26.46875 42.628906 -25.242188 42.140625 -23.984375 C 41.660156 -22.722656 40.859375 -21.644531 39.734375 -20.75 C 38.609375 -19.851562 37.15625 -19.335938 35.375 -19.203125 C 35.1875 -19.203125 35.023438 -19.1875 34.890625 -19.15625 C 34.753906 -19.132812 34.59375 -19.125 34.40625 -19.125 C 31.976562 -19.125 30.222656 -19.753906 29.140625 -21.015625 C 28.066406 -22.285156 27.503906 -23.648438 27.453125 -25.109375 C 27.453125 -26.078125 27.671875 -26.925781 28.109375 -27.65625 C 28.546875 -28.394531 29.003906 -28.992188 29.484375 -29.453125 C 29.960938 -29.910156 30.257812 -30.273438 30.375 -30.546875 C 30.488281 -30.828125 30.179688 -30.988281 29.453125 -31.03125 C 29.410156 -31.03125 29.363281 -31.03125 29.3125 -31.03125 C 29.269531 -31.03125 29.222656 -31.03125 29.171875 -31.03125 C 28.023438 -31.03125 26.945312 -30.582031 25.9375 -29.6875 C 24.925781 -28.789062 24.066406 -27.609375 23.359375 -26.140625 C 22.648438 -24.679688 22.097656 -23.078125 21.703125 -21.328125 C 21.316406 -19.585938 21.125 -17.847656 21.125 -16.109375 C 21.125 -15.367188 21.125 -14.550781 21.125 -13.65625 C 21.125 -12.757812 21.125 -11.785156 21.125 -10.734375 C 21.125 -9.398438 21.351562 -8.34375 21.8125 -7.5625 C 22.269531 -6.789062 22.785156 -6.140625 23.359375 -5.609375 C 23.929688 -5.078125 24.4375 -4.570312 24.875 -4.09375 C 25.3125 -3.613281 25.484375 -3.03125 25.390625 -2.34375 C 25.347656 -1.695312 24.820312 -1.203125 23.8125 -0.859375 C 22.800781 -0.515625 21.59375 -0.257812 20.1875 -0.09375 C 18.789062 0.0625 17.472656 0.160156 16.234375 0.203125 C 14.992188 0.253906 14.125 0.28125 13.625 0.28125 C 13.125 0.28125 12.238281 0.253906 10.96875 0.203125 C 9.707031 0.160156 8.363281 0.0507812 6.9375 -0.125 C 5.519531 -0.3125 4.269531 -0.578125 3.1875 -0.921875 C 2.113281 -1.265625 1.53125 -1.738281 1.4375 -2.34375 C 1.351562 -3.03125 1.515625 -3.613281 1.921875 -4.09375 C 2.335938 -4.570312 2.851562 -5.078125 3.46875 -5.609375 C 4.09375 -6.140625 4.644531 -6.804688 5.125 -7.609375 C 5.601562 -8.410156 5.84375 -9.453125 5.84375 -10.734375 L 5.84375 -17.75 C 5.84375 -20.039062 5.644531 -21.65625 5.25 -22.59375 C 4.863281 -23.539062 4.285156 -24.082031 3.515625 -24.21875 C 2.679688 -24.40625 2.082031 -24.757812 1.71875 -25.28125 C 1.351562 -25.8125 1.296875 -26.363281 1.546875 -26.9375 C 1.796875 -27.507812 2.378906 -27.9375 3.296875 -28.21875 C 5.222656 -28.851562 6.816406 -29.410156 8.078125 -29.890625 C 9.347656 -30.378906 10.507812 -30.921875 11.5625 -31.515625 C 12.613281 -32.109375 13.78125 -32.863281 15.0625 -33.78125 C 15.9375 -34.382812 16.671875 -34.6875 17.265625 -34.6875 C 18.003906 -34.6875 18.566406 -34.363281 18.953125 -33.71875 C 19.347656 -33.070312 19.671875 -32.234375 19.921875 -31.203125 C 20.171875 -30.171875 20.410156 -29.101562 20.640625 -28 C 21.929688 -30.382812 23.550781 -32.253906 25.5 -33.609375 C 27.445312 -34.960938 29.773438 -35.640625 32.484375 -35.640625 C 35.097656 -35.640625 37.351562 -34.941406 39.25 -33.546875 C 41.15625 -32.148438 42.269531 -30.1875 42.59375 -27.65625 Z M 42.59375 -27.65625 "/></g></g></g><g fill="#000000" fill-opacity="1"><g transform="translate(479.29721, 62.908846)"><g><path d="M 45.34375 -10.796875 C 45.34375 -9.472656 45.570312 -8.410156 46.03125 -7.609375 C 46.488281 -6.804688 47.003906 -6.148438 47.578125 -5.640625 C 48.148438 -5.140625 48.65625 -4.644531 49.09375 -4.15625 C 49.53125 -3.675781 49.726562 -3.09375 49.6875 -2.40625 C 49.632812 -1.757812 49.082031 -1.253906 48.03125 -0.890625 C 46.976562 -0.523438 45.726562 -0.257812 44.28125 -0.09375 C 42.832031 0.0625 41.476562 0.160156 40.21875 0.203125 C 38.957031 0.253906 38.078125 0.28125 37.578125 0.28125 C 35.046875 0.28125 33.253906 -0.335938 32.203125 -1.578125 C 31.148438 -2.816406 30.460938 -4.285156 30.140625 -5.984375 C 28.898438 -3.597656 27.234375 -1.910156 25.140625 -0.921875 C 23.054688 0.0546875 20.734375 0.546875 18.171875 0.546875 C 15.734375 0.546875 13.585938 0.0859375 11.734375 -0.828125 C 9.878906 -1.742188 8.429688 -3.023438 7.390625 -4.671875 C 6.359375 -6.328125 5.84375 -8.210938 5.84375 -10.328125 C 5.84375 -10.828125 5.84375 -11.488281 5.84375 -12.3125 C 5.84375 -13.144531 5.84375 -13.992188 5.84375 -14.859375 C 5.84375 -15.734375 5.84375 -16.46875 5.84375 -17.0625 C 5.84375 -17.65625 5.84375 -17.953125 5.84375 -17.953125 C 5.84375 -20.253906 5.644531 -21.875 5.25 -22.8125 C 4.863281 -23.75 4.285156 -24.3125 3.515625 -24.5 C 2.679688 -24.675781 2.082031 -25.03125 1.71875 -25.5625 C 1.351562 -26.09375 1.296875 -26.644531 1.546875 -27.21875 C 1.796875 -27.789062 2.378906 -28.210938 3.296875 -28.484375 C 5.222656 -29.128906 6.894531 -29.679688 8.3125 -30.140625 C 9.738281 -30.597656 11.148438 -31.125 12.546875 -31.71875 C 13.953125 -32.3125 15.523438 -33.09375 17.265625 -34.0625 C 18.179688 -34.5625 18.894531 -34.8125 19.40625 -34.8125 C 20.28125 -34.8125 20.851562 -34.351562 21.125 -33.4375 C 21.394531 -32.519531 21.53125 -31.394531 21.53125 -30.0625 C 21.53125 -28.738281 21.507812 -27.4375 21.46875 -26.15625 C 21.46875 -25.601562 21.46875 -24.765625 21.46875 -23.640625 C 21.46875 -22.515625 21.46875 -21.332031 21.46875 -20.09375 C 21.46875 -18.851562 21.46875 -17.796875 21.46875 -16.921875 C 21.46875 -16.054688 21.46875 -15.625 21.46875 -15.625 C 21.46875 -14.101562 21.488281 -12.570312 21.53125 -11.03125 C 21.582031 -9.5 21.8125 -8.207031 22.21875 -7.15625 C 22.632812 -6.101562 23.394531 -5.578125 24.5 -5.578125 C 25.644531 -5.578125 26.582031 -5.960938 27.3125 -6.734375 C 28.050781 -7.515625 28.625 -8.5 29.03125 -9.6875 C 29.445312 -10.882812 29.703125 -12.101562 29.796875 -13.34375 L 29.796875 -17.953125 C 29.796875 -20.253906 29.597656 -21.875 29.203125 -22.8125 C 28.816406 -23.75 28.234375 -24.3125 27.453125 -24.5 C 26.628906 -24.675781 26.03125 -25.03125 25.65625 -25.5625 C 25.289062 -26.09375 25.234375 -26.644531 25.484375 -27.21875 C 25.742188 -27.789062 26.332031 -28.210938 27.25 -28.484375 C 29.175781 -29.128906 30.847656 -29.679688 32.265625 -30.140625 C 33.691406 -30.597656 35.101562 -31.125 36.5 -31.71875 C 37.90625 -32.3125 39.476562 -33.09375 41.21875 -34.0625 C 42.132812 -34.5625 42.847656 -34.8125 43.359375 -34.8125 C 44.222656 -34.8125 44.789062 -34.351562 45.0625 -33.4375 C 45.34375 -32.519531 45.484375 -31.394531 45.484375 -30.0625 C 45.484375 -28.738281 45.460938 -27.4375 45.421875 -26.15625 C 45.367188 -24.5 45.34375 -22.507812 45.34375 -20.1875 C 45.34375 -17.875 45.34375 -14.742188 45.34375 -10.796875 Z M 45.34375 -10.796875 "/></g></g></g><g fill="#000000" fill-opacity="1"><g transform="translate(533.318151, 62.908846)"><g><path d="M 45.078125 -10.734375 C 45.078125 -9.398438 45.304688 -8.34375 45.765625 -7.5625 C 46.222656 -6.789062 46.738281 -6.140625 47.3125 -5.609375 C 47.882812 -5.078125 48.382812 -4.570312 48.8125 -4.09375 C 49.25 -3.613281 49.445312 -3.03125 49.40625 -2.34375 C 49.363281 -1.695312 48.8125 -1.203125 47.75 -0.859375 C 46.695312 -0.515625 45.457031 -0.257812 44.03125 -0.09375 C 42.613281 0.0625 41.257812 0.160156 39.96875 0.203125 C 38.6875 0.253906 37.796875 0.28125 37.296875 0.28125 C 34.953125 0.28125 33.226562 -0.28125 32.125 -1.40625 C 31.03125 -2.53125 30.320312 -3.941406 30 -5.640625 C 29.675781 -7.335938 29.515625 -9.035156 29.515625 -10.734375 L 29.515625 -17.75 C 29.515625 -19.269531 29.492188 -20.796875 29.453125 -22.328125 C 29.410156 -23.867188 29.179688 -25.164062 28.765625 -26.21875 C 28.347656 -27.269531 27.59375 -27.796875 26.5 -27.796875 C 25.257812 -27.796875 24.25 -27.335938 23.46875 -26.421875 C 22.6875 -25.503906 22.109375 -24.359375 21.734375 -22.984375 C 21.367188 -21.609375 21.164062 -20.234375 21.125 -18.859375 C 21.125 -17.796875 21.125 -16.597656 21.125 -15.265625 C 21.125 -13.941406 21.125 -12.429688 21.125 -10.734375 C 21.125 -9.398438 21.351562 -8.34375 21.8125 -7.5625 C 22.269531 -6.789062 22.785156 -6.140625 23.359375 -5.609375 C 23.929688 -5.078125 24.4375 -4.570312 24.875 -4.09375 C 25.3125 -3.613281 25.484375 -3.03125 25.390625 -2.34375 C 25.347656 -1.695312 24.820312 -1.203125 23.8125 -0.859375 C 22.800781 -0.515625 21.59375 -0.257812 20.1875 -0.09375 C 18.789062 0.0625 17.472656 0.160156 16.234375 0.203125 C 14.992188 0.253906 14.125 0.28125 13.625 0.28125 C 13.125 0.28125 12.238281 0.253906 10.96875 0.203125 C 9.707031 0.160156 8.363281 0.0507812 6.9375 -0.125 C 5.519531 -0.3125 4.269531 -0.578125 3.1875 -0.921875 C 2.113281 -1.265625 1.53125 -1.738281 1.4375 -2.34375 C 1.351562 -3.03125 1.515625 -3.613281 1.921875 -4.09375 C 2.335938 -4.570312 2.851562 -5.078125 3.46875 -5.609375 C 4.09375 -6.140625 4.644531 -6.804688 5.125 -7.609375 C 5.601562 -8.410156 5.84375 -9.453125 5.84375 -10.734375 L 5.84375 -17.75 C 5.84375 -20.039062 5.644531 -21.65625 5.25 -22.59375 C 4.863281 -23.539062 4.285156 -24.082031 3.515625 -24.21875 C 2.679688 -24.40625 2.082031 -24.757812 1.71875 -25.28125 C 1.351562 -25.8125 1.296875 -26.363281 1.546875 -26.9375 C 1.796875 -27.507812 2.378906 -27.9375 3.296875 -28.21875 C 5.222656 -28.851562 6.816406 -29.410156 8.078125 -29.890625 C 9.347656 -30.378906 10.507812 -30.921875 11.5625 -31.515625 C 12.613281 -32.109375 13.78125 -32.863281 15.0625 -33.78125 C 15.894531 -34.425781 16.65625 -34.75 17.34375 -34.75 C 18.070312 -34.75 18.644531 -34.367188 19.0625 -33.609375 C 19.476562 -32.859375 19.8125 -31.90625 20.0625 -30.75 C 20.3125 -29.601562 20.550781 -28.4375 20.78125 -27.25 C 22.019531 -29.675781 23.691406 -31.394531 25.796875 -32.40625 C 27.910156 -33.414062 30.253906 -33.921875 32.828125 -33.921875 C 35.253906 -33.921875 37.394531 -33.460938 39.25 -32.546875 C 41.113281 -31.628906 42.5625 -30.351562 43.59375 -28.71875 C 44.625 -27.09375 45.140625 -25.203125 45.140625 -23.046875 C 45.140625 -22.222656 45.140625 -21.476562 45.140625 -20.8125 C 45.140625 -20.144531 45.140625 -19.410156 45.140625 -18.609375 C 45.140625 -17.804688 45.128906 -16.785156 45.109375 -15.546875 C 45.085938 -14.304688 45.078125 -12.703125 45.078125 -10.734375 Z M 45.078125 -10.734375 "/></g></g></g><g fill="#000000" fill-opacity="1"><g transform="translate(585.205789, 62.908846)"><g><path d="M 27.734375 -9.5625 C 28.785156 -9.84375 29.390625 -10.566406 29.546875 -11.734375 C 29.710938 -12.898438 29.597656 -14.304688 29.203125 -15.953125 C 28.816406 -17.609375 28.300781 -19.332031 27.65625 -21.125 C 27.15625 -22.632812 26.59375 -24.113281 25.96875 -25.5625 C 25.351562 -27.007812 24.644531 -28.203125 23.84375 -29.140625 C 23.039062 -30.078125 22.113281 -30.546875 21.0625 -30.546875 C 20.875 -30.546875 20.675781 -30.523438 20.46875 -30.484375 C 20.257812 -30.441406 20.039062 -30.375 19.8125 -30.28125 C 18.757812 -29.914062 18.140625 -29.132812 17.953125 -27.9375 C 17.773438 -26.75 17.878906 -25.316406 18.265625 -23.640625 C 18.660156 -21.960938 19.15625 -20.179688 19.75 -18.296875 C 20.570312 -15.773438 21.546875 -13.664062 22.671875 -11.96875 C 23.796875 -10.269531 25.113281 -9.421875 26.625 -9.421875 C 26.8125 -9.421875 26.992188 -9.429688 27.171875 -9.453125 C 27.359375 -9.484375 27.546875 -9.519531 27.734375 -9.5625 Z M 46.9375 -37.234375 C 46.84375 -36.773438 46.460938 -36.109375 45.796875 -35.234375 C 45.128906 -34.359375 44.050781 -33.539062 42.5625 -32.78125 C 41.070312 -32.03125 38.992188 -31.5625 36.328125 -31.375 C 39.085938 -30.1875 41.289062 -28.601562 42.9375 -26.625 C 44.59375 -24.65625 45.421875 -22.429688 45.421875 -19.953125 C 45.421875 -17.523438 44.640625 -15.359375 43.078125 -13.453125 C 41.515625 -11.546875 39.398438 -9.972656 36.734375 -8.734375 C 34.078125 -7.492188 31.078125 -6.691406 27.734375 -6.328125 L 27.65625 -6.328125 C 27.613281 -6.328125 27.546875 -6.316406 27.453125 -6.296875 C 27.359375 -6.273438 27.269531 -6.265625 27.1875 -6.265625 C 26.632812 -6.210938 25.828125 -6.09375 24.765625 -5.90625 C 23.710938 -5.726562 22.738281 -5.488281 21.84375 -5.1875 C 20.945312 -4.894531 20.429688 -4.492188 20.296875 -3.984375 C 20.203125 -3.523438 20.347656 -3.179688 20.734375 -2.953125 C 21.128906 -2.722656 21.671875 -2.609375 22.359375 -2.609375 C 22.453125 -2.609375 22.546875 -2.609375 22.640625 -2.609375 C 22.734375 -2.609375 22.800781 -2.609375 22.84375 -2.609375 C 24.3125 -2.703125 25.648438 -2.882812 26.859375 -3.15625 C 28.078125 -3.4375 29.398438 -3.710938 30.828125 -3.984375 C 32.253906 -4.265625 33.953125 -4.425781 35.921875 -4.46875 C 36.054688 -4.46875 36.191406 -4.46875 36.328125 -4.46875 C 36.472656 -4.46875 36.613281 -4.46875 36.75 -4.46875 C 39.914062 -4.46875 42.300781 -3.78125 43.90625 -2.40625 C 45.507812 -1.03125 46.242188 0.6875 46.109375 2.75 C 45.960938 4.582031 45.289062 6.175781 44.09375 7.53125 C 42.90625 8.882812 41.382812 10.019531 39.53125 10.9375 C 37.675781 11.851562 35.691406 12.585938 33.578125 13.140625 C 31.472656 13.691406 29.410156 14.09375 27.390625 14.34375 C 25.367188 14.59375 23.625 14.71875 22.15625 14.71875 C 19.90625 14.71875 17.472656 14.554688 14.859375 14.234375 C 12.242188 13.921875 9.773438 13.363281 7.453125 12.5625 C 5.140625 11.757812 3.253906 10.691406 1.796875 9.359375 C 0.828125 8.441406 0.25 7.441406 0.0625 6.359375 C -0.113281 5.285156 0.0078125 4.253906 0.4375 3.265625 C 0.875 2.285156 1.550781 1.484375 2.46875 0.859375 C 3.394531 0.242188 4.476562 -0.0625 5.71875 -0.0625 C 7.132812 -0.0625 8.347656 0.289062 9.359375 1 C 10.367188 1.707031 11.332031 2.585938 12.25 3.640625 C 13.164062 4.703125 14.140625 5.769531 15.171875 6.84375 C 16.203125 7.925781 17.425781 8.820312 18.84375 9.53125 C 20.269531 10.238281 21.992188 10.59375 24.015625 10.59375 C 24.742188 10.59375 25.53125 10.46875 26.375 10.21875 C 27.226562 9.96875 27.953125 9.578125 28.546875 9.046875 C 29.148438 8.515625 29.472656 7.816406 29.515625 6.953125 C 29.609375 5.484375 28.863281 4.4375 27.28125 3.8125 C 25.695312 3.195312 23.78125 2.820312 21.53125 2.6875 C 19.882812 2.59375 18.257812 2.40625 16.65625 2.125 C 15.050781 1.851562 13.71875 1.382812 12.65625 0.71875 C 11.601562 0.0507812 11.078125 -0.851562 11.078125 -2 C 11.078125 -2.957031 11.410156 -3.734375 12.078125 -4.328125 C 12.742188 -4.929688 13.582031 -5.414062 14.59375 -5.78125 C 15.601562 -6.144531 16.566406 -6.421875 17.484375 -6.609375 C 14.492188 -7.160156 11.816406 -8.039062 9.453125 -9.25 C 7.097656 -10.46875 5.234375 -11.992188 3.859375 -13.828125 C 2.484375 -15.660156 1.796875 -17.703125 1.796875 -19.953125 C 1.796875 -22.703125 2.789062 -25.117188 4.78125 -27.203125 C 6.78125 -29.296875 9.429688 -30.914062 12.734375 -32.0625 C 16.035156 -33.207031 19.660156 -33.78125 23.609375 -33.78125 C 23.785156 -33.78125 23.941406 -33.78125 24.078125 -33.78125 C 24.222656 -33.78125 24.363281 -33.78125 24.5 -33.78125 C 24.539062 -33.78125 24.570312 -33.789062 24.59375 -33.8125 C 24.625 -33.84375 24.660156 -33.859375 24.703125 -33.859375 C 25.347656 -33.859375 26.015625 -33.820312 26.703125 -33.75 C 27.390625 -33.6875 28.097656 -33.65625 28.828125 -33.65625 C 29.609375 -33.65625 30.363281 -33.722656 31.09375 -33.859375 C 31.832031 -33.992188 32.523438 -34.242188 33.171875 -34.609375 C 34.085938 -35.160156 34.726562 -35.695312 35.09375 -36.21875 C 35.457031 -36.75 35.734375 -37.289062 35.921875 -37.84375 C 36.109375 -38.394531 36.382812 -39.015625 36.75 -39.703125 C 37.113281 -40.296875 37.742188 -40.992188 38.640625 -41.796875 C 39.535156 -42.609375 40.785156 -43.015625 42.390625 -43.015625 C 44.222656 -42.960938 45.53125 -42.375 46.3125 -41.25 C 47.09375 -40.125 47.300781 -38.785156 46.9375 -37.234375 Z M 46.9375 -37.234375 "/></g></g></g><g fill="#000000" fill-opacity="1"><g transform="translate(636.33645, 62.908846)"><g/></g></g><g fill="#000000" fill-opacity="1"><g transform="translate(654.503998, 62.908846)"><g><path d="M 62.28125 -10.875 C 62.457031 -9.539062 62.820312 -8.472656 63.375 -7.671875 C 63.925781 -6.867188 64.519531 -6.203125 65.15625 -5.671875 C 65.800781 -5.148438 66.363281 -4.644531 66.84375 -4.15625 C 67.332031 -3.675781 67.597656 -3.09375 67.640625 -2.40625 C 67.640625 -1.757812 67.125 -1.265625 66.09375 -0.921875 C 65.0625 -0.578125 63.820312 -0.328125 62.375 -0.171875 C 60.9375 -0.015625 59.570312 0.0820312 58.28125 0.125 C 57 0.175781 56.101562 0.203125 55.59375 0.203125 C 55.09375 0.203125 54.1875 0.175781 52.875 0.125 C 51.570312 0.0820312 50.175781 -0.0234375 48.6875 -0.203125 C 47.195312 -0.390625 45.890625 -0.65625 44.765625 -1 C 43.640625 -1.34375 42.984375 -1.8125 42.796875 -2.40625 C 42.617188 -3.09375 42.703125 -3.6875 43.046875 -4.1875 C 43.390625 -4.695312 43.832031 -5.210938 44.375 -5.734375 C 44.925781 -6.265625 45.382812 -6.929688 45.75 -7.734375 C 46.125 -8.546875 46.242188 -9.59375 46.109375 -10.875 L 43.625 -30.34375 L 35.296875 -4.8125 C 34.972656 -3.894531 34.421875 -3.148438 33.640625 -2.578125 C 32.867188 -2.003906 31.976562 -1.71875 30.96875 -1.71875 L 28.078125 -1.71875 C 27.109375 -1.71875 26.234375 -1.992188 25.453125 -2.546875 C 24.679688 -3.097656 24.132812 -3.804688 23.8125 -4.671875 L 14.796875 -29.453125 C 14.609375 -27.847656 14.390625 -26.066406 14.140625 -24.109375 C 13.890625 -22.160156 13.648438 -20.269531 13.421875 -18.4375 C 13.191406 -16.601562 12.992188 -14.984375 12.828125 -13.578125 C 12.671875 -12.179688 12.546875 -11.210938 12.453125 -10.671875 C 12.273438 -9.335938 12.4375 -8.28125 12.9375 -7.5 C 13.4375 -6.71875 14.03125 -6.085938 14.71875 -5.609375 C 15.414062 -5.128906 16.015625 -4.644531 16.515625 -4.15625 C 17.015625 -3.675781 17.195312 -3.09375 17.0625 -2.40625 C 16.925781 -1.757812 16.523438 -1.265625 15.859375 -0.921875 C 15.191406 -0.578125 14.410156 -0.328125 13.515625 -0.171875 C 12.628906 -0.015625 11.757812 0.0703125 10.90625 0.09375 C 10.0625 0.125 9.382812 0.140625 8.875 0.140625 C 8.226562 0.140625 7.304688 0.0820312 6.109375 -0.03125 C 4.921875 -0.144531 3.84375 -0.394531 2.875 -0.78125 C 1.914062 -1.175781 1.414062 -1.765625 1.375 -2.546875 C 1.332031 -3.234375 1.539062 -3.804688 2 -4.265625 C 2.457031 -4.722656 2.992188 -5.203125 3.609375 -5.703125 C 4.234375 -6.210938 4.816406 -6.84375 5.359375 -7.59375 C 5.910156 -8.351562 6.257812 -9.378906 6.40625 -10.671875 L 9.421875 -34.46875 C 9.566406 -35.757812 9.429688 -36.804688 9.015625 -37.609375 C 8.597656 -38.410156 8.09375 -39.070312 7.5 -39.59375 C 6.90625 -40.125 6.410156 -40.628906 6.015625 -41.109375 C 5.628906 -41.597656 5.53125 -42.1875 5.71875 -42.875 C 5.894531 -43.46875 6.535156 -43.9375 7.640625 -44.28125 C 8.742188 -44.625 10.015625 -44.875 11.453125 -45.03125 C 12.898438 -45.195312 14.242188 -45.300781 15.484375 -45.34375 C 16.722656 -45.394531 17.59375 -45.421875 18.09375 -45.421875 C 18.695312 -45.421875 19.570312 -45.382812 20.71875 -45.3125 C 21.863281 -45.238281 22.960938 -45.066406 24.015625 -44.796875 C 25.066406 -44.523438 25.753906 -44.085938 26.078125 -43.484375 L 34.46875 -20.5 L 42.046875 -43.28125 L 42.109375 -43.28125 C 42.390625 -43.96875 43.03125 -44.457031 44.03125 -44.75 C 45.039062 -45.050781 46.109375 -45.25 47.234375 -45.34375 C 48.359375 -45.4375 49.222656 -45.484375 49.828125 -45.484375 C 50.328125 -45.484375 51.226562 -45.457031 52.53125 -45.40625 C 53.84375 -45.363281 55.234375 -45.257812 56.703125 -45.09375 C 58.171875 -44.9375 59.46875 -44.675781 60.59375 -44.3125 C 61.71875 -43.945312 62.347656 -43.441406 62.484375 -42.796875 C 62.617188 -42.109375 62.515625 -41.523438 62.171875 -41.046875 C 61.828125 -40.566406 61.390625 -40.0625 60.859375 -39.53125 C 60.335938 -39 59.90625 -38.34375 59.5625 -37.5625 C 59.21875 -36.789062 59.113281 -35.738281 59.25 -34.40625 C 59.34375 -33.8125 59.488281 -32.722656 59.6875 -31.140625 C 59.894531 -29.554688 60.125 -27.742188 60.375 -25.703125 C 60.632812 -23.660156 60.890625 -21.617188 61.140625 -19.578125 C 61.390625 -17.535156 61.617188 -15.722656 61.828125 -14.140625 C 62.035156 -12.554688 62.1875 -11.46875 62.28125 -10.875 Z M 62.28125 -10.875 "/></g></g></g><g fill="#000000" fill-opacity="1"><g transform="translate(724.35271, 62.908846)"><g><path d="M 40.9375 -10.734375 C 40.9375 -9.398438 41.164062 -8.34375 41.625 -7.5625 C 42.082031 -6.789062 42.597656 -6.140625 43.171875 -5.609375 C 43.753906 -5.078125 44.25 -4.570312 44.65625 -4.09375 C 45.070312 -3.613281 45.253906 -3.03125 45.203125 -2.34375 C 45.160156 -1.695312 44.609375 -1.203125 43.546875 -0.859375 C 42.492188 -0.515625 41.253906 -0.257812 39.828125 -0.09375 C 38.410156 0.0625 37.070312 0.160156 35.8125 0.203125 C 34.550781 0.253906 33.671875 0.28125 33.171875 0.28125 C 30.828125 0.28125 29.101562 -0.28125 28 -1.40625 C 26.90625 -2.53125 26.195312 -3.941406 25.875 -5.640625 C 25.550781 -7.335938 25.390625 -9.035156 25.390625 -10.734375 L 25.25 -21.46875 C 24.75 -20.363281 23.984375 -19.570312 22.953125 -19.09375 C 21.921875 -18.613281 20.785156 -17.9375 19.546875 -17.0625 C 18.078125 -16.050781 17.144531 -14.914062 16.75 -13.65625 C 16.363281 -12.394531 16.285156 -11.125 16.515625 -9.84375 C 16.609375 -9.332031 16.828125 -8.734375 17.171875 -8.046875 C 17.515625 -7.359375 18.050781 -6.75 18.78125 -6.21875 C 19.519531 -5.695312 20.460938 -5.414062 21.609375 -5.375 C 22.523438 -5.320312 23.0625 -5.019531 23.21875 -4.46875 C 23.382812 -3.914062 23.210938 -3.269531 22.703125 -2.53125 C 22.203125 -1.800781 21.398438 -1.140625 20.296875 -0.546875 C 19.191406 0.046875 17.863281 0.410156 16.3125 0.546875 C 15.988281 0.597656 15.675781 0.625 15.375 0.625 C 15.082031 0.625 14.796875 0.625 14.515625 0.625 C 11.992188 0.625 9.6875 0.203125 7.59375 -0.640625 C 5.507812 -1.492188 3.867188 -2.710938 2.671875 -4.296875 C 1.484375 -5.878906 0.9375 -7.773438 1.03125 -9.984375 C 1.125 -11.992188 1.660156 -13.640625 2.640625 -14.921875 C 3.628906 -16.210938 4.925781 -17.269531 6.53125 -18.09375 C 8.144531 -18.925781 9.957031 -19.613281 11.96875 -20.15625 C 13.988281 -20.707031 16.097656 -21.257812 18.296875 -21.8125 C 21.097656 -22.5 22.875 -23.507812 23.625 -24.84375 C 24.382812 -26.175781 24.445312 -27.484375 23.8125 -28.765625 C 22.988281 -30.003906 21.796875 -30.625 20.234375 -30.625 C 19.265625 -30.625 18.484375 -30.367188 17.890625 -29.859375 C 17.296875 -29.359375 16.789062 -28.75 16.375 -28.03125 C 15.96875 -27.320312 15.53125 -26.585938 15.0625 -25.828125 C 14.601562 -25.078125 14.007812 -24.445312 13.28125 -23.9375 C 12.550781 -23.4375 11.566406 -23.140625 10.328125 -23.046875 C 10.273438 -23.046875 10.238281 -23.046875 10.21875 -23.046875 C 10.195312 -23.046875 10.140625 -23.046875 10.046875 -23.046875 C 8.898438 -23.046875 7.9375 -23.425781 7.15625 -24.1875 C 6.375 -24.945312 5.9375 -25.882812 5.84375 -27 C 5.757812 -28.125 6.128906 -29.191406 6.953125 -30.203125 C 8.003906 -31.492188 9.445312 -32.445312 11.28125 -33.0625 C 13.113281 -33.6875 15.03125 -34.097656 17.03125 -34.296875 C 19.03125 -34.503906 20.785156 -34.609375 22.296875 -34.609375 C 24.492188 -34.609375 26.613281 -34.378906 28.65625 -33.921875 C 30.695312 -33.460938 32.539062 -32.660156 34.1875 -31.515625 C 35.84375 -30.367188 37.207031 -28.785156 38.28125 -26.765625 C 39.363281 -24.742188 40.019531 -22.195312 40.25 -19.125 C 40.34375 -18.03125 40.410156 -17.179688 40.453125 -16.578125 C 40.503906 -15.984375 40.5625 -15.285156 40.625 -14.484375 C 40.695312 -13.679688 40.800781 -12.429688 40.9375 -10.734375 Z M 40.9375 -10.734375 "/></g></g></g><g fill="#000000" fill-opacity="1"><g transform="translate(773.556518, 62.908846)"><g><path d="M 45.484375 -9.078125 C 46.492188 -7.984375 47.398438 -7.171875 48.203125 -6.640625 C 49.003906 -6.109375 49.644531 -5.613281 50.125 -5.15625 C 50.613281 -4.695312 50.859375 -3.988281 50.859375 -3.03125 C 50.859375 -2.207031 50.382812 -1.550781 49.4375 -1.0625 C 48.5 -0.582031 47.363281 -0.238281 46.03125 -0.03125 C 44.707031 0.175781 43.445312 0.300781 42.25 0.34375 C 41.0625 0.382812 40.210938 0.40625 39.703125 0.40625 C 39.203125 0.40625 38.398438 0.394531 37.296875 0.375 C 36.191406 0.351562 35.03125 0.25 33.8125 0.0625 C 32.601562 -0.113281 31.523438 -0.382812 30.578125 -0.75 C 29.640625 -1.125 29.054688 -1.65625 28.828125 -2.34375 C 28.648438 -2.9375 28.640625 -3.519531 28.796875 -4.09375 C 28.953125 -4.664062 29.097656 -5.296875 29.234375 -5.984375 C 29.378906 -6.671875 29.359375 -7.453125 29.171875 -8.328125 C 28.992188 -9.203125 28.488281 -10.253906 27.65625 -11.484375 C 26.789062 -12.816406 25.957031 -14.007812 25.15625 -15.0625 C 24.351562 -16.125 23.675781 -17 23.125 -17.6875 C 22.800781 -17.5 22.5 -17.300781 22.21875 -17.09375 C 21.945312 -16.894531 21.675781 -16.679688 21.40625 -16.453125 C 21.40625 -15.390625 21.40625 -14.375 21.40625 -13.40625 C 21.40625 -12.445312 21.40625 -11.554688 21.40625 -10.734375 C 21.40625 -9.398438 21.632812 -8.34375 22.09375 -7.5625 C 22.550781 -6.789062 23.066406 -6.140625 23.640625 -5.609375 C 24.210938 -5.078125 24.71875 -4.570312 25.15625 -4.09375 C 25.59375 -3.613281 25.765625 -3.03125 25.671875 -2.34375 C 25.617188 -1.695312 25.066406 -1.203125 24.015625 -0.859375 C 22.960938 -0.515625 21.722656 -0.257812 20.296875 -0.09375 C 18.878906 0.0625 17.535156 0.160156 16.265625 0.203125 C 15.003906 0.253906 14.125 0.28125 13.625 0.28125 C 13.125 0.28125 12.238281 0.253906 10.96875 0.203125 C 9.707031 0.160156 8.363281 0.0507812 6.9375 -0.125 C 5.519531 -0.3125 4.269531 -0.578125 3.1875 -0.921875 C 2.113281 -1.265625 1.53125 -1.738281 1.4375 -2.34375 C 1.351562 -3.03125 1.515625 -3.613281 1.921875 -4.09375 C 2.335938 -4.570312 2.851562 -5.078125 3.46875 -5.609375 C 4.09375 -6.140625 4.644531 -6.804688 5.125 -7.609375 C 5.601562 -8.410156 5.84375 -9.453125 5.84375 -10.734375 L 5.84375 -30.96875 C 5.84375 -33.257812 5.644531 -34.875 5.25 -35.8125 C 4.863281 -36.757812 4.285156 -37.320312 3.515625 -37.5 C 2.679688 -37.6875 2.082031 -38.039062 1.71875 -38.5625 C 1.351562 -39.09375 1.296875 -39.644531 1.546875 -40.21875 C 1.796875 -40.789062 2.378906 -41.21875 3.296875 -41.5 C 5.222656 -42.132812 6.894531 -42.679688 8.3125 -43.140625 C 9.738281 -43.597656 11.148438 -44.125 12.546875 -44.71875 C 13.953125 -45.320312 15.523438 -46.101562 17.265625 -47.0625 C 18.179688 -47.570312 18.894531 -47.828125 19.40625 -47.828125 C 20.28125 -47.828125 20.851562 -47.367188 21.125 -46.453125 C 21.394531 -45.535156 21.53125 -44.410156 21.53125 -43.078125 C 21.53125 -41.742188 21.507812 -40.4375 21.46875 -39.15625 C 21.46875 -38.46875 21.457031 -37.285156 21.4375 -35.609375 C 21.414062 -33.929688 21.40625 -31.992188 21.40625 -29.796875 C 21.40625 -27.597656 21.40625 -25.304688 21.40625 -22.921875 C 23.050781 -23.972656 24.4375 -24.875 25.5625 -25.625 C 26.6875 -26.382812 27.613281 -27.019531 28.34375 -27.53125 C 29.726562 -28.445312 30.632812 -29.117188 31.0625 -29.546875 C 31.5 -29.984375 31.679688 -30.335938 31.609375 -30.609375 C 31.546875 -30.890625 31.410156 -31.210938 31.203125 -31.578125 C 30.992188 -31.953125 30.9375 -32.503906 31.03125 -33.234375 C 31.125 -33.878906 31.476562 -34.382812 32.09375 -34.75 C 32.71875 -35.113281 33.460938 -35.375 34.328125 -35.53125 C 35.203125 -35.695312 36.078125 -35.800781 36.953125 -35.84375 C 37.828125 -35.894531 38.535156 -35.921875 39.078125 -35.921875 C 39.492188 -35.921875 40.09375 -35.882812 40.875 -35.8125 C 41.65625 -35.75 42.445312 -35.625 43.25 -35.4375 C 44.050781 -35.25 44.726562 -34.972656 45.28125 -34.609375 C 45.832031 -34.242188 46.109375 -33.765625 46.109375 -33.171875 C 46.054688 -32.203125 45.5625 -31.429688 44.625 -30.859375 C 43.6875 -30.285156 42.484375 -29.6875 41.015625 -29.0625 C 39.546875 -28.445312 37.960938 -27.59375 36.265625 -26.5 C 36.078125 -26.351562 35.859375 -26.203125 35.609375 -26.046875 C 35.359375 -25.890625 35.070312 -25.71875 34.75 -25.53125 C 36.769531 -22.175781 38.628906 -19.078125 40.328125 -16.234375 C 42.023438 -13.390625 43.742188 -11.003906 45.484375 -9.078125 Z M 45.484375 -9.078125 "/></g></g></g><g fill="#000000" fill-opacity="1"><g transform="translate(828.747337, 62.908846)"><g><path d="M 40.9375 -10.734375 C 40.9375 -9.398438 41.164062 -8.34375 41.625 -7.5625 C 42.082031 -6.789062 42.597656 -6.140625 43.171875 -5.609375 C 43.753906 -5.078125 44.25 -4.570312 44.65625 -4.09375 C 45.070312 -3.613281 45.253906 -3.03125 45.203125 -2.34375 C 45.160156 -1.695312 44.609375 -1.203125 43.546875 -0.859375 C 42.492188 -0.515625 41.253906 -0.257812 39.828125 -0.09375 C 38.410156 0.0625 37.070312 0.160156 35.8125 0.203125 C 34.550781 0.253906 33.671875 0.28125 33.171875 0.28125 C 30.828125 0.28125 29.101562 -0.28125 28 -1.40625 C 26.90625 -2.53125 26.195312 -3.941406 25.875 -5.640625 C 25.550781 -7.335938 25.390625 -9.035156 25.390625 -10.734375 L 25.25 -21.46875 C 24.75 -20.363281 23.984375 -19.570312 22.953125 -19.09375 C 21.921875 -18.613281 20.785156 -17.9375 19.546875 -17.0625 C 18.078125 -16.050781 17.144531 -14.914062 16.75 -13.65625 C 16.363281 -12.394531 16.285156 -11.125 16.515625 -9.84375 C 16.609375 -9.332031 16.828125 -8.734375 17.171875 -8.046875 C 17.515625 -7.359375 18.050781 -6.75 18.78125 -6.21875 C 19.519531 -5.695312 20.460938 -5.414062 21.609375 -5.375 C 22.523438 -5.320312 23.0625 -5.019531 23.21875 -4.46875 C 23.382812 -3.914062 23.210938 -3.269531 22.703125 -2.53125 C 22.203125 -1.800781 21.398438 -1.140625 20.296875 -0.546875 C 19.191406 0.046875 17.863281 0.410156 16.3125 0.546875 C 15.988281 0.597656 15.675781 0.625 15.375 0.625 C 15.082031 0.625 14.796875 0.625 14.515625 0.625 C 11.992188 0.625 9.6875 0.203125 7.59375 -0.640625 C 5.507812 -1.492188 3.867188 -2.710938 2.671875 -4.296875 C 1.484375 -5.878906 0.9375 -7.773438 1.03125 -9.984375 C 1.125 -11.992188 1.660156 -13.640625 2.640625 -14.921875 C 3.628906 -16.210938 4.925781 -17.269531 6.53125 -18.09375 C 8.144531 -18.925781 9.957031 -19.613281 11.96875 -20.15625 C 13.988281 -20.707031 16.097656 -21.257812 18.296875 -21.8125 C 21.097656 -22.5 22.875 -23.507812 23.625 -24.84375 C 24.382812 -26.175781 24.445312 -27.484375 23.8125 -28.765625 C 22.988281 -30.003906 21.796875 -30.625 20.234375 -30.625 C 19.265625 -30.625 18.484375 -30.367188 17.890625 -29.859375 C 17.296875 -29.359375 16.789062 -28.75 16.375 -28.03125 C 15.96875 -27.320312 15.53125 -26.585938 15.0625 -25.828125 C 14.601562 -25.078125 14.007812 -24.445312 13.28125 -23.9375 C 12.550781 -23.4375 11.566406 -23.140625 10.328125 -23.046875 C 10.273438 -23.046875 10.238281 -23.046875 10.21875 -23.046875 C 10.195312 -23.046875 10.140625 -23.046875 10.046875 -23.046875 C 8.898438 -23.046875 7.9375 -23.425781 7.15625 -24.1875 C 6.375 -24.945312 5.9375 -25.882812 5.84375 -27 C 5.757812 -28.125 6.128906 -29.191406 6.953125 -30.203125 C 8.003906 -31.492188 9.445312 -32.445312 11.28125 -33.0625 C 13.113281 -33.6875 15.03125 -34.097656 17.03125 -34.296875 C 19.03125 -34.503906 20.785156 -34.609375 22.296875 -34.609375 C 24.492188 -34.609375 26.613281 -34.378906 28.65625 -33.921875 C 30.695312 -33.460938 32.539062 -32.660156 34.1875 -31.515625 C 35.84375 -30.367188 37.207031 -28.785156 38.28125 -26.765625 C 39.363281 -24.742188 40.019531 -22.195312 40.25 -19.125 C 40.34375 -18.03125 40.410156 -17.179688 40.453125 -16.578125 C 40.503906 -15.984375 40.5625 -15.285156 40.625 -14.484375 C 40.695312 -13.679688 40.800781 -12.429688 40.9375 -10.734375 Z M 40.9375 -10.734375 "/></g></g></g><g fill="#000000" fill-opacity="1"><g transform="translate(877.951145, 62.908846)"><g><path d="M 45.078125 -10.734375 C 45.078125 -9.398438 45.304688 -8.34375 45.765625 -7.5625 C 46.222656 -6.789062 46.738281 -6.140625 47.3125 -5.609375 C 47.882812 -5.078125 48.382812 -4.570312 48.8125 -4.09375 C 49.25 -3.613281 49.445312 -3.03125 49.40625 -2.34375 C 49.363281 -1.695312 48.8125 -1.203125 47.75 -0.859375 C 46.695312 -0.515625 45.457031 -0.257812 44.03125 -0.09375 C 42.613281 0.0625 41.257812 0.160156 39.96875 0.203125 C 38.6875 0.253906 37.796875 0.28125 37.296875 0.28125 C 34.953125 0.28125 33.226562 -0.28125 32.125 -1.40625 C 31.03125 -2.53125 30.320312 -3.941406 30 -5.640625 C 29.675781 -7.335938 29.515625 -9.035156 29.515625 -10.734375 L 29.515625 -17.75 C 29.515625 -19.269531 29.492188 -20.796875 29.453125 -22.328125 C 29.410156 -23.867188 29.179688 -25.164062 28.765625 -26.21875 C 28.347656 -27.269531 27.59375 -27.796875 26.5 -27.796875 C 25.257812 -27.796875 24.25 -27.335938 23.46875 -26.421875 C 22.6875 -25.503906 22.109375 -24.359375 21.734375 -22.984375 C 21.367188 -21.609375 21.164062 -20.234375 21.125 -18.859375 C 21.125 -17.796875 21.125 -16.597656 21.125 -15.265625 C 21.125 -13.941406 21.125 -12.429688 21.125 -10.734375 C 21.125 -9.398438 21.351562 -8.34375 21.8125 -7.5625 C 22.269531 -6.789062 22.785156 -6.140625 23.359375 -5.609375 C 23.929688 -5.078125 24.4375 -4.570312 24.875 -4.09375 C 25.3125 -3.613281 25.484375 -3.03125 25.390625 -2.34375 C 25.347656 -1.695312 24.820312 -1.203125 23.8125 -0.859375 C 22.800781 -0.515625 21.59375 -0.257812 20.1875 -0.09375 C 18.789062 0.0625 17.472656 0.160156 16.234375 0.203125 C 14.992188 0.253906 14.125 0.28125 13.625 0.28125 C 13.125 0.28125 12.238281 0.253906 10.96875 0.203125 C 9.707031 0.160156 8.363281 0.0507812 6.9375 -0.125 C 5.519531 -0.3125 4.269531 -0.578125 3.1875 -0.921875 C 2.113281 -1.265625 1.53125 -1.738281 1.4375 -2.34375 C 1.351562 -3.03125 1.515625 -3.613281 1.921875 -4.09375 C 2.335938 -4.570312 2.851562 -5.078125 3.46875 -5.609375 C 4.09375 -6.140625 4.644531 -6.804688 5.125 -7.609375 C 5.601562 -8.410156 5.84375 -9.453125 5.84375 -10.734375 L 5.84375 -17.75 C 5.84375 -20.039062 5.644531 -21.65625 5.25 -22.59375 C 4.863281 -23.539062 4.285156 -24.082031 3.515625 -24.21875 C 2.679688 -24.40625 2.082031 -24.757812 1.71875 -25.28125 C 1.351562 -25.8125 1.296875 -26.363281 1.546875 -26.9375 C 1.796875 -27.507812 2.378906 -27.9375 3.296875 -28.21875 C 5.222656 -28.851562 6.816406 -29.410156 8.078125 -29.890625 C 9.347656 -30.378906 10.507812 -30.921875 11.5625 -31.515625 C 12.613281 -32.109375 13.78125 -32.863281 15.0625 -33.78125 C 15.894531 -34.425781 16.65625 -34.75 17.34375 -34.75 C 18.070312 -34.75 18.644531 -34.367188 19.0625 -33.609375 C 19.476562 -32.859375 19.8125 -31.90625 20.0625 -30.75 C 20.3125 -29.601562 20.550781 -28.4375 20.78125 -27.25 C 22.019531 -29.675781 23.691406 -31.394531 25.796875 -32.40625 C 27.910156 -33.414062 30.253906 -33.921875 32.828125 -33.921875 C 35.253906 -33.921875 37.394531 -33.460938 39.25 -32.546875 C 41.113281 -31.628906 42.5625 -30.351562 43.59375 -28.71875 C 44.625 -27.09375 45.140625 -25.203125 45.140625 -23.046875 C 45.140625 -22.222656 45.140625 -21.476562 45.140625 -20.8125 C 45.140625 -20.144531 45.140625 -19.410156 45.140625 -18.609375 C 45.140625 -17.804688 45.128906 -16.785156 45.109375 -15.546875 C 45.085938 -14.304688 45.078125 -12.703125 45.078125 -10.734375 Z M 45.078125 -10.734375 "/></g></g></g><g fill="#000000" fill-opacity="1"><g transform="translate(314.183991, 161.559518)"><g><path d="M 54.71875 -1.578125 L 53.328125 -2.78125 L 50.921875 -5.46875 L 36.546875 -19.75 L 34.96875 -20.78125 L 33.765625 -22.171875 L 27.171875 -28.46875 L 25.96875 -30.046875 L 24.765625 -30.515625 L 24.109375 -28.9375 L 23.921875 -27.078125 L 23.84375 -3.625 L 22.90625 -0.734375 L 21.046875 0.1875 L 19.109375 0.28125 L 15.484375 0 L 13.453125 0.1875 L 9.640625 0 L 7.703125 -0.65625 L 6.859375 -2.40625 L 6.671875 -10.203125 L 6.859375 -11.96875 L 6.671875 -27.171875 L 6.953125 -28.75 L 6.765625 -32.5625 L 6.859375 -34.125 L 6.859375 -62.234375 L 7.703125 -64 L 9.828125 -64.921875 L 12.609375 -64.28125 L 14.75 -63.15625 L 16.140625 -62.046875 L 34.40625 -43.59375 L 37 -41.546875 L 43.59375 -34.96875 L 44.984375 -34.3125 L 45.546875 -35.890625 L 45.71875 -52.5 L 45.546875 -54.53125 L 45.8125 -58.4375 L 45.546875 -59.921875 L 45.640625 -61.859375 L 46.65625 -63.8125 L 48.421875 -64.828125 L 59.921875 -64.921875 L 61.765625 -63.90625 L 62.703125 -62.046875 L 62.984375 -49.15625 L 62.703125 -46.9375 L 62.703125 -37.75 L 62.984375 -36.171875 L 62.796875 -2.3125 L 61.859375 -0.46875 L 59.828125 0.1875 L 57.234375 -0.09375 Z M 54.71875 -1.578125 "/></g></g></g><g fill="#000000" fill-opacity="1"><g transform="translate(390.612213, 161.559518)"><g><path d="M 54.71875 0.1875 L 52.78125 0 L 50.640625 -0.921875 L 48.78125 -2.3125 L 48.234375 -3.984375 L 47.390625 -5.75 L 45.640625 -7.234375 L 43.59375 -8.25 L 41.546875 -7.96875 L 39.875 -8.15625 L 30.796875 -8.0625 L 29.125 -8.34375 L 25.234375 -7.96875 L 23.46875 -8.25 L 21.515625 -7.234375 L 19.75 -5.46875 L 18.09375 -2.40625 L 16.328125 -0.734375 L 14.1875 -0.09375 L 9 0.09375 L 7.140625 -0.09375 L 3.53125 0.09375 L 1.671875 -0.46875 L 1.203125 -2.78125 L 1.765625 -4.640625 L 3.625 -8.34375 L 4.078125 -10.015625 L 5.09375 -11.3125 L 6.5 -15.03125 L 8.15625 -18 L 8.8125 -19.84375 L 9.734375 -21.234375 L 10.296875 -23.28125 L 19.75 -43.125 L 20.3125 -44.796875 L 21.328125 -46.5625 L 21.796875 -48.421875 L 22.8125 -49.8125 L 26.53125 -58.34375 L 27.359375 -59.640625 L 28.015625 -61.5 L 28.84375 -63.0625 L 30.515625 -64.640625 L 33.484375 -65.671875 L 36.546875 -64.734375 L 38.125 -63.0625 L 39.875 -59.828125 L 40.4375 -58.15625 L 41.453125 -56.484375 L 42.015625 -54.625 L 48.140625 -41.734375 L 48.78125 -39.796875 L 50.734375 -36.359375 L 51.296875 -34.875 L 52.125 -33.484375 L 52.6875 -31.4375 L 53.609375 -29.6875 L 54.53125 -28.28125 L 58.0625 -19.84375 L 59.921875 -16.515625 L 61.21875 -13.078125 L 63.71875 -8.25 L 65.109375 -4.828125 L 65.765625 -2.6875 L 65.484375 -0.46875 L 62.890625 0 L 60.015625 0.09375 L 58.25 -0.09375 Z M 33.671875 -22.90625 L 37.375 -23 L 38.765625 -23.75 L 39.140625 -25.40625 L 34.78125 -35.609375 L 33.484375 -36.359375 L 32.46875 -35.515625 L 28.109375 -25.5 L 28.203125 -23.75 L 29.6875 -23.09375 L 31.8125 -23.28125 Z M 33.671875 -22.90625 "/></g></g></g><g fill="#000000" fill-opacity="1"><g transform="translate(464.443361, 161.559518)"><g><path d="M 54.71875 -1.578125 L 53.328125 -2.78125 L 50.921875 -5.46875 L 36.546875 -19.75 L 34.96875 -20.78125 L 33.765625 -22.171875 L 27.171875 -28.46875 L 25.96875 -30.046875 L 24.765625 -30.515625 L 24.109375 -28.9375 L 23.921875 -27.078125 L 23.84375 -3.625 L 22.90625 -0.734375 L 21.046875 0.1875 L 19.109375 0.28125 L 15.484375 0 L 13.453125 0.1875 L 9.640625 0 L 7.703125 -0.65625 L 6.859375 -2.40625 L 6.671875 -10.203125 L 6.859375 -11.96875 L 6.671875 -27.171875 L 6.953125 -28.75 L 6.765625 -32.5625 L 6.859375 -34.125 L 6.859375 -62.234375 L 7.703125 -64 L 9.828125 -64.921875 L 12.609375 -64.28125 L 14.75 -63.15625 L 16.140625 -62.046875 L 34.40625 -43.59375 L 37 -41.546875 L 43.59375 -34.96875 L 44.984375 -34.3125 L 45.546875 -35.890625 L 45.71875 -52.5 L 45.546875 -54.53125 L 45.8125 -58.4375 L 45.546875 -59.921875 L 45.640625 -61.859375 L 46.65625 -63.8125 L 48.421875 -64.828125 L 59.921875 -64.921875 L 61.765625 -63.90625 L 62.703125 -62.046875 L 62.984375 -49.15625 L 62.703125 -46.9375 L 62.703125 -37.75 L 62.984375 -36.171875 L 62.796875 -2.3125 L 61.859375 -0.46875 L 59.828125 0.1875 L 57.234375 -0.09375 Z M 54.71875 -1.578125 "/></g></g></g><g fill="#000000" fill-opacity="1"><g transform="translate(540.871589, 161.559518)"><g><path d="M 31.078125 0.375 L 29.21875 -0.09375 L 24.671875 -0.09375 L 21.890625 0.28125 L 18.171875 -0.09375 L 16.328125 0.09375 L 13.453125 0.1875 L 10.765625 -0.1875 L 9 0 L 7.234375 0 L 5.375 -0.828125 L 4.453125 -3.34375 L 4.734375 -11.875 L 5.75 -13.546875 L 11.875 -15.390625 L 12.890625 -18.171875 L 12.609375 -46.65625 L 11.78125 -49.15625 L 10.015625 -50.265625 L 8.15625 -50.265625 L 6.125 -51.296875 L 5.09375 -53.140625 L 5.28125 -54.90625 L 5.015625 -61.765625 L 5.9375 -64 L 7.796875 -64.921875 L 9.921875 -64.921875 L 11.6875 -64.640625 L 19.296875 -64.640625 L 21.140625 -65.015625 L 22.8125 -64.828125 L 34.046875 -64.828125 L 35.703125 -63.8125 L 36.828125 -62.046875 L 36.734375 -52.875 L 35.796875 -51.390625 L 33.859375 -50.640625 L 32 -50.359375 L 29.953125 -49.53125 L 29.3125 -47.390625 L 28.9375 -38.03125 L 29.3125 -31.34375 L 29.125 -29.3125 L 29.21875 -19.109375 L 28.9375 -17.34375 L 30.046875 -15.21875 L 32.28125 -14.46875 L 34.21875 -14.46875 L 36.265625 -13.453125 L 37.375 -11.6875 L 37.375 -2.5 L 36.453125 -0.734375 L 34.78125 0.1875 Z M 31.078125 0.375 "/></g></g></g><g fill="#000000" fill-opacity="1"><g transform="translate(589.474012, 161.559518)"><g/></g></g><g fill="#000000" fill-opacity="1"><g transform="translate(621.102687, 161.559518)"><g><path d="M 12.25 0 L 9.453125 -0.09375 L 7.703125 0.1875 L 5.015625 0.28125 L 3.15625 0 L 0.828125 -0.65625 L 0.734375 -2.59375 L 16.96875 -35.609375 L 17.625 -37.375 L 19.109375 -40.71875 L 20.125 -42.296875 L 20.875 -44.0625 L 21.890625 -45.546875 L 22.53125 -47.296875 L 29.953125 -62.515625 L 31.4375 -64.1875 L 33.765625 -64.734375 L 37.28125 -64.828125 L 40.90625 -64.546875 L 42.84375 -64.921875 L 44.609375 -64.734375 L 45.90625 -63.90625 L 45.90625 -62.328125 L 43.5 -57.234375 L 42.9375 -55.65625 L 38.671875 -47.484375 L 38.03125 -45.8125 L 33.953125 -37.28125 L 33.296875 -35.515625 L 32.375 -34.125 L 25.140625 -18.921875 L 23.375 -15.953125 L 22.078125 -12.328125 L 19.390625 -7.703125 L 18.640625 -5.65625 L 17.71875 -4.078125 L 17.0625 -2.5 L 15.296875 -0.921875 Z M 12.25 0 "/></g></g></g><g fill="#000000" fill-opacity="1"><g transform="translate(674.620994, 161.559518)"><g/></g></g><g fill="#000000" fill-opacity="1"><g transform="translate(706.249646, 161.559518)"><g><path d="M 6.953125 -2.875 L 6.765625 -4.640625 L 6.953125 -24.953125 L 6.671875 -27.734375 L 7.046875 -45.453125 L 6.765625 -49.34375 L 6.953125 -54.8125 L 6.859375 -56.484375 L 6.953125 -58.4375 L 6.765625 -60.109375 L 6.765625 -62.140625 L 7.703125 -64.09375 L 9.734375 -65.015625 L 20.96875 -64.828125 L 22.625 -65.203125 L 26.25 -64.734375 L 27.921875 -65.109375 L 37.46875 -64.828125 L 41.09375 -64 L 42.671875 -63.4375 L 44.421875 -62.609375 L 46 -61.671875 L 47.296875 -60.65625 L 48.6875 -59.734375 L 50.078125 -58.4375 L 53.140625 -54.171875 L 53.796875 -52.21875 L 54.53125 -48.875 L 54.71875 -46 L 54.625 -42.84375 L 53.515625 -39.515625 L 51.75 -35.890625 L 51.109375 -34.125 L 52.03125 -32 L 53.515625 -30.703125 L 54.71875 -29.3125 L 56.390625 -25.5 L 57.40625 -22.171875 L 57.234375 -14.65625 L 56.484375 -12.890625 L 55.921875 -11.125 L 55 -9.28125 L 52.5 -5.84375 L 48.78125 -2.875 L 47.109375 -2.046875 L 41.921875 -0.5625 L 40.25 -0.28125 L 30.703125 0.1875 L 28.84375 -0.09375 L 15.390625 0.09375 L 12.609375 -0.1875 L 9.546875 0.09375 L 7.796875 -1.015625 Z M 25.96875 -39.609375 L 33.109375 -39.875 L 35.796875 -40.8125 L 37.1875 -41.921875 L 37.84375 -44.609375 L 37.5625 -47.390625 L 36.828125 -48.875 L 35.34375 -49.625 L 25.78125 -50.265625 L 24.015625 -49.15625 L 22.90625 -46.46875 L 23 -43.3125 L 24.015625 -40.71875 Z M 25.6875 -14.84375 L 32.828125 -14.65625 L 37.9375 -15.125 L 39.515625 -16.140625 L 40.53125 -17.4375 L 41 -20.125 L 40.4375 -22.453125 L 39.515625 -24.109375 L 37.9375 -24.765625 L 29.21875 -25.59375 L 27.265625 -25.40625 L 25.5 -25.6875 L 23.921875 -24.484375 L 23.09375 -22.90625 L 22.8125 -17.34375 L 24.015625 -15.484375 Z M 25.6875 -14.84375 "/></g></g></g><g fill="#000000" fill-opacity="1"><g transform="translate(772.104059, 161.559518)"><g><path d="M 54.71875 0.1875 L 52.78125 0 L 50.640625 -0.921875 L 48.78125 -2.3125 L 48.234375 -3.984375 L 47.390625 -5.75 L 45.640625 -7.234375 L 43.59375 -8.25 L 41.546875 -7.96875 L 39.875 -8.15625 L 30.796875 -8.0625 L 29.125 -8.34375 L 25.234375 -7.96875 L 23.46875 -8.25 L 21.515625 -7.234375 L 19.75 -5.46875 L 18.09375 -2.40625 L 16.328125 -0.734375 L 14.1875 -0.09375 L 9 0.09375 L 7.140625 -0.09375 L 3.53125 0.09375 L 1.671875 -0.46875 L 1.203125 -2.78125 L 1.765625 -4.640625 L 3.625 -8.34375 L 4.078125 -10.015625 L 5.09375 -11.3125 L 6.5 -15.03125 L 8.15625 -18 L 8.8125 -19.84375 L 9.734375 -21.234375 L 10.296875 -23.28125 L 19.75 -43.125 L 20.3125 -44.796875 L 21.328125 -46.5625 L 21.796875 -48.421875 L 22.8125 -49.8125 L 26.53125 -58.34375 L 27.359375 -59.640625 L 28.015625 -61.5 L 28.84375 -63.0625 L 30.515625 -64.640625 L 33.484375 -65.671875 L 36.546875 -64.734375 L 38.125 -63.0625 L 39.875 -59.828125 L 40.4375 -58.15625 L 41.453125 -56.484375 L 42.015625 -54.625 L 48.140625 -41.734375 L 48.78125 -39.796875 L 50.734375 -36.359375 L 51.296875 -34.875 L 52.125 -33.484375 L 52.6875 -31.4375 L 53.609375 -29.6875 L 54.53125 -28.28125 L 58.0625 -19.84375 L 59.921875 -16.515625 L 61.21875 -13.078125 L 63.71875 -8.25 L 65.109375 -4.828125 L 65.765625 -2.6875 L 65.484375 -0.46875 L 62.890625 0 L 60.015625 0.09375 L 58.25 -0.09375 Z M 33.671875 -22.90625 L 37.375 -23 L 38.765625 -23.75 L 39.140625 -25.40625 L 34.78125 -35.609375 L 33.484375 -36.359375 L 32.46875 -35.515625 L 28.109375 -25.5 L 28.203125 -23.75 L 29.6875 -23.09375 L 31.8125 -23.28125 Z M 33.671875 -22.90625 "/></g></g></g><g fill="#000000" fill-opacity="1"><g transform="translate(838.885991, 161.559518)"><g><path d="M 21.234375 -2.78125 L 21.328125 -6.3125 L 21.140625 -8.0625 L 21.328125 -15.21875 L 21.140625 -17.0625 L 21.234375 -24.390625 L 20.78125 -26.890625 L 19.84375 -29.5 L 12.703125 -40.8125 L 11.96875 -42.484375 L 9.734375 -45.453125 L 5.9375 -52.03125 L 4.921875 -53.328125 L 0.921875 -59.921875 L 0 -62.046875 L 0.28125 -64.09375 L 2.140625 -65.015625 L 6.40625 -64.734375 L 11.125 -65.109375 L 12.703125 -64.734375 L 14.65625 -64.828125 L 16.78125 -64 L 18.734375 -62.234375 L 23.09375 -54.078125 L 24.109375 -52.5 L 26.890625 -47.296875 L 27.921875 -45.8125 L 28.9375 -44.0625 L 29.953125 -44.0625 L 31.15625 -45.640625 L 32.734375 -49.15625 L 33.671875 -50.734375 L 34.59375 -52.6875 L 36.640625 -55.65625 L 37.75 -58.4375 L 40.15625 -62.421875 L 41.828125 -64 L 44.328125 -64.921875 L 45.90625 -64.828125 L 49.53125 -64.921875 L 51.390625 -64.640625 L 53.328125 -64.828125 L 56.953125 -64.734375 L 58.625 -64.375 L 58.984375 -62.328125 L 57.96875 -60.015625 L 52.03125 -50.171875 L 50.921875 -48.875 L 39.140625 -29.5 L 38.21875 -27.078125 L 37.65625 -24.390625 L 37.75 -19.015625 L 37.46875 -17.34375 L 37.46875 -15.484375 L 37.65625 -13.640625 L 37.375 -2.875 L 36.640625 -0.921875 L 34.78125 0.09375 L 32.921875 -0.09375 L 30.328125 0.09375 L 27.453125 -0.09375 L 25.78125 0.09375 L 23.921875 0 L 21.984375 -0.734375 Z M 21.234375 -2.78125 "/></g></g></g><g fill="#000000" fill-opacity="1"><g transform="translate(904.369414, 161.559518)"><g><path d="M 31.90625 1.203125 L 28.9375 1.015625 L 27.078125 1.015625 L 23.46875 0.28125 L 19.9375 -1.296875 L 18.546875 -2.140625 L 16.6875 -2.96875 L 13.734375 -4.921875 L 12.328125 -6.125 L 11.21875 -7.421875 L 9.09375 -10.765625 L 7.609375 -13.90625 L 6.671875 -17.71875 L 6.125 -25.140625 L 6.40625 -40.0625 L 6.21875 -41.828125 L 6.5 -43.6875 L 6.21875 -56.671875 L 6.40625 -58.15625 L 6.40625 -60.375 L 6.21875 -62.234375 L 7.421875 -64 L 9.375 -64.734375 L 11.3125 -65.015625 L 15.296875 -64.640625 L 17.15625 -64.921875 L 18.921875 -64.921875 L 20.875 -64.09375 L 21.984375 -62.046875 L 22.171875 -59.359375 L 21.984375 -56.390625 L 22.171875 -55 L 21.890625 -25.140625 L 22.453125 -19.75 L 23 -18 L 24.109375 -16.515625 L 25.59375 -15.390625 L 27.171875 -14.46875 L 29.3125 -14 L 34.875 -14 L 38.125 -15.21875 L 39.703125 -16.328125 L 40.71875 -18.171875 L 41.28125 -19.5625 L 41.921875 -25.328125 L 41.734375 -61.859375 L 42.75 -63.90625 L 44.703125 -64.828125 L 48.59375 -64.546875 L 54.4375 -64.734375 L 56.484375 -64.09375 L 57.6875 -62.140625 L 57.40625 -60.28125 L 57.40625 -52.59375 L 57.59375 -51.109375 L 57.40625 -49.0625 L 57.59375 -47.296875 L 57.59375 -22.265625 L 57.140625 -17.8125 L 56.296875 -13.90625 L 55.375 -12.328125 L 54.8125 -10.484375 L 52.6875 -7.234375 L 50.078125 -4.640625 L 47.03125 -2.59375 L 43.6875 -0.828125 L 36.453125 1.015625 L 34.6875 0.921875 Z M 31.90625 1.203125 "/></g></g></g></svg>